<svg width="100" height="100" viewBox="0 0 100 100" fill="none" xmlns="http://www.w3.org/2000/svg">
<path fill-rule="evenodd" clip-rule="evenodd" d="M50 0C22.3858 0 0 22.3858 0 50C0 77.6142 22.3858 100 50 100C77.6142 100 100 77.6142 100 50C100 22.3858 77.6142 0 50 0ZM25.459 74.7567C26.4616 75.5699 27.8743 75.9766 29.6973 75.9766C34.3913 75.9766 38.6523 74.8284 42.4805 72.5322C46.3086 70.2359 49.3164 67.1264 51.5039 63.2036C53.737 59.2329 54.8535 54.8557 54.8535 50.0718C54.8535 45.3357 53.737 40.9824 51.5039 37.0117C49.3164 32.9932 46.3086 29.8359 42.4805 27.5396C38.6523 25.1955 34.3913 24.0234 29.6973 24.0234C27.9655 24.0234 26.5983 24.454 25.5957 25.3151C24.6387 26.1284 24.1602 27.2765 24.1602 28.7595C24.1602 30.386 24.6842 31.6538 25.7324 32.5627C26.8262 33.4238 28.3073 33.8543 30.1758 33.8543C33.0013 33.8543 35.5762 34.548 37.9004 35.9353C40.2246 37.3227 42.0703 39.2602 43.4375 41.7478C44.8047 44.2354 45.4883 47.0101 45.4883 50.0718C45.4883 53.0378 44.8047 55.7407 43.4375 58.1805C42.1159 60.6203 40.2474 62.5577 37.832 63.9929C35.4622 65.4281 32.7962 66.1457 29.834 66.1457C28.0111 66.1457 26.5755 66.6001 25.5273 67.5091C24.5247 68.3702 24.0234 69.5901 24.0234 71.1687C24.0234 72.6996 24.502 73.8956 25.459 74.7567ZM52.1191 67.9396C51.2533 68.8007 50.8203 69.8532 50.8203 71.097C50.8203 72.3408 51.2533 73.4411 52.1191 74.3979C52.985 75.3068 54.0104 75.7613 55.1953 75.7613H75.9766V55.2384C75.9766 53.6597 75.498 52.368 74.541 51.3634C73.6296 50.311 72.4447 49.7608 70.9863 49.713C69.528 49.713 68.3203 50.2392 67.3633 51.2917C66.4062 52.3441 65.9277 53.6836 65.9277 55.3101V66.5762H55.1953C54.0104 66.5762 52.985 67.0307 52.1191 67.9396Z" fill="url(#paint0_linear_2560_94)"/>
<defs>
<linearGradient id="paint0_linear_2560_94" x1="50" y1="0" x2="50" y2="100" gradientUnits="userSpaceOnUse">
<stop stop-color="#F9322C"/>
<stop offset="1" stop-color="#E3312C"/>
</linearGradient>
</defs>
</svg>
