<svg width="164" height="385" viewBox="0 0 164 385" fill="none" xmlns="http://www.w3.org/2000/svg">
<rect width="64" height="25" rx="12.5" fill="#F4322C"/>
<path d="M11.104 16.5V7.74H13.372C13.94 7.74 14.428 7.848 14.836 8.064C15.252 8.28 15.572 8.584 15.796 8.976C16.028 9.368 16.144 9.832 16.144 10.368V13.86C16.144 14.396 16.028 14.864 15.796 15.264C15.572 15.656 15.252 15.96 14.836 16.176C14.428 16.392 13.94 16.5 13.372 16.5H11.104ZM12.184 15.54H13.372C13.9 15.54 14.312 15.392 14.608 15.096C14.912 14.8 15.064 14.388 15.064 13.86V10.368C15.064 9.848 14.912 9.44 14.608 9.144C14.312 8.848 13.9 8.7 13.372 8.7H12.184V15.54ZM20.7953 16.596C19.9953 16.596 19.3633 16.372 18.8993 15.924C18.4433 15.468 18.2153 14.852 18.2153 14.076V12.324C18.2153 11.54 18.4433 10.924 18.8993 10.476C19.3633 10.028 19.9953 9.804 20.7953 9.804C21.5953 9.804 22.2233 10.028 22.6793 10.476C23.1433 10.924 23.3753 11.536 23.3753 12.312V14.076C23.3753 14.852 23.1433 15.468 22.6793 15.924C22.2233 16.372 21.5953 16.596 20.7953 16.596ZM20.7953 15.636C21.2673 15.636 21.6353 15.504 21.8993 15.24C22.1633 14.976 22.2953 14.588 22.2953 14.076V12.324C22.2953 11.812 22.1633 11.424 21.8993 11.16C21.6353 10.896 21.2673 10.764 20.7953 10.764C20.3313 10.764 19.9633 10.896 19.6913 11.16C19.4273 11.424 19.2953 11.812 19.2953 12.324V14.076C19.2953 14.588 19.4273 14.976 19.6913 15.24C19.9633 15.504 20.3313 15.636 20.7953 15.636ZM28.0386 16.62C27.2386 16.62 26.5986 16.396 26.1186 15.948C25.6466 15.5 25.4106 14.884 25.4106 14.1V12.3C25.4106 11.516 25.6466 10.9 26.1186 10.452C26.5986 10.004 27.2386 9.78 28.0386 9.78C28.7986 9.78 29.4106 9.984 29.8746 10.392C30.3386 10.8 30.5826 11.356 30.6066 12.06H29.5266C29.5026 11.636 29.3586 11.312 29.0946 11.088C28.8386 10.856 28.4866 10.74 28.0386 10.74C27.5666 10.74 27.1906 10.876 26.9106 11.148C26.6306 11.412 26.4906 11.792 26.4906 12.288V14.1C26.4906 14.596 26.6306 14.98 26.9106 15.252C27.1906 15.524 27.5666 15.66 28.0386 15.66C28.4866 15.66 28.8386 15.544 29.0946 15.312C29.3586 15.08 29.5026 14.756 29.5266 14.34H30.6066C30.5826 15.044 30.3386 15.6 29.8746 16.008C29.4106 16.416 28.7986 16.62 28.0386 16.62ZM32.7259 16.5V7.74H33.8059V12.624H35.0779L36.9979 9.9H38.2339L36.0139 13.044L38.2699 16.5H37.0099L35.0899 13.56H33.8059V16.5H32.7259ZM42.3813 16.62C41.8613 16.62 41.4053 16.516 41.0133 16.308C40.6293 16.1 40.3293 15.808 40.1133 15.432C39.9053 15.048 39.8013 14.604 39.8013 14.1V12.3C39.8013 11.788 39.9053 11.344 40.1133 10.968C40.3293 10.592 40.6293 10.3 41.0133 10.092C41.4053 9.884 41.8613 9.78 42.3813 9.78C42.9013 9.78 43.3533 9.884 43.7373 10.092C44.1293 10.3 44.4293 10.592 44.6373 10.968C44.8533 11.344 44.9613 11.788 44.9613 12.3V13.464H40.8573V14.1C40.8573 14.62 40.9893 15.02 41.2533 15.3C41.5173 15.572 41.8933 15.708 42.3813 15.708C42.7973 15.708 43.1333 15.636 43.3893 15.492C43.6453 15.34 43.8013 15.116 43.8573 14.82H44.9373C44.8653 15.372 44.5933 15.812 44.1213 16.14C43.6573 16.46 43.0773 16.62 42.3813 16.62ZM40.8573 12.648H43.9053V12.3C43.9053 11.78 43.7733 11.38 43.5093 11.1C43.2533 10.82 42.8773 10.68 42.3813 10.68C41.8933 10.68 41.5173 10.82 41.2533 11.1C40.9893 11.38 40.8573 11.78 40.8573 12.3V12.648ZM47.2846 16.5V9.9H48.3646V11.16H48.3766C48.4326 10.72 48.6126 10.38 48.9166 10.14C49.2206 9.9 49.6246 9.78 50.1286 9.78C50.8166 9.78 51.3646 10 51.7726 10.44C52.1806 10.872 52.3846 11.46 52.3846 12.204V12.66H51.3046V12.3C51.3046 11.796 51.1766 11.408 50.9206 11.136C50.6646 10.856 50.2926 10.716 49.8046 10.716C48.8446 10.716 48.3646 11.244 48.3646 12.3V16.5H47.2846Z" fill="#DDDDDD"/>
<rect y="80" width="71" height="25" rx="12.5" fill="#F4322C"/>
<path d="M13.648 96.62C13.088 96.62 12.596 96.52 12.172 96.32C11.756 96.12 11.432 95.84 11.2 95.48C10.976 95.112 10.864 94.684 10.864 94.196H11.944C11.944 94.636 12.1 94.992 12.412 95.264C12.724 95.528 13.136 95.66 13.648 95.66C14.144 95.66 14.54 95.528 14.836 95.264C15.132 94.992 15.28 94.636 15.28 94.196C15.28 93.852 15.188 93.552 15.004 93.296C14.828 93.032 14.584 92.852 14.272 92.756L12.976 92.348C12.392 92.164 11.932 91.86 11.596 91.436C11.268 91.012 11.104 90.52 11.104 89.96C11.104 89.248 11.336 88.68 11.8 88.256C12.272 87.832 12.896 87.62 13.672 87.62C14.448 87.62 15.068 87.832 15.532 88.256C15.996 88.68 16.228 89.248 16.228 89.96H15.148C15.148 89.536 15.012 89.2 14.74 88.952C14.476 88.704 14.12 88.58 13.672 88.58C13.216 88.58 12.848 88.704 12.568 88.952C12.296 89.2 12.16 89.528 12.16 89.936C12.16 90.256 12.252 90.532 12.436 90.764C12.62 90.996 12.872 91.164 13.192 91.268L14.536 91.7C15.088 91.876 15.524 92.188 15.844 92.636C16.172 93.084 16.336 93.604 16.336 94.196C16.336 94.684 16.224 95.112 16 95.48C15.784 95.84 15.472 96.12 15.064 96.32C14.664 96.52 14.192 96.62 13.648 96.62ZM18.3953 96.5V87.74H23.4353V88.724H19.4633V91.436H23.0153V92.396H19.4633V95.516H23.4353V96.5H18.3953ZM24.9906 96.5L27.2706 87.74H28.7226L30.9906 96.5H29.8986L29.3226 94.172H26.6706L26.0946 96.5H24.9906ZM26.8866 93.26H29.0946L28.4226 90.56C28.2946 90.048 28.1946 89.62 28.1226 89.276C28.0506 88.932 28.0066 88.708 27.9906 88.604C27.9746 88.708 27.9306 88.932 27.8586 89.276C27.7866 89.62 27.6866 90.044 27.5586 90.548L26.8866 93.26ZM32.4859 97.82L36.7459 86.54H37.8859L33.6259 97.82H32.4859ZM42.4293 96.62C41.8693 96.62 41.3773 96.52 40.9533 96.32C40.5373 96.12 40.2133 95.84 39.9813 95.48C39.7573 95.112 39.6453 94.684 39.6453 94.196H40.7253C40.7253 94.636 40.8813 94.992 41.1933 95.264C41.5053 95.528 41.9173 95.66 42.4293 95.66C42.9253 95.66 43.3213 95.528 43.6173 95.264C43.9133 94.992 44.0613 94.636 44.0613 94.196C44.0613 93.852 43.9693 93.552 43.7853 93.296C43.6093 93.032 43.3653 92.852 43.0533 92.756L41.7573 92.348C41.1733 92.164 40.7133 91.86 40.3773 91.436C40.0493 91.012 39.8853 90.52 39.8853 89.96C39.8853 89.248 40.1173 88.68 40.5813 88.256C41.0533 87.832 41.6773 87.62 42.4533 87.62C43.2293 87.62 43.8493 87.832 44.3133 88.256C44.7773 88.68 45.0093 89.248 45.0093 89.96H43.9293C43.9293 89.536 43.7933 89.2 43.5213 88.952C43.2573 88.704 42.9013 88.58 42.4533 88.58C41.9973 88.58 41.6293 88.704 41.3493 88.952C41.0773 89.2 40.9413 89.528 40.9413 89.936C40.9413 90.256 41.0333 90.532 41.2173 90.764C41.4013 90.996 41.6533 91.164 41.9733 91.268L43.3173 91.7C43.8693 91.876 44.3053 92.188 44.6253 92.636C44.9533 93.084 45.1172 93.604 45.1172 94.196C45.1172 94.684 45.0052 95.112 44.7812 95.48C44.5653 95.84 44.2533 96.12 43.8453 96.32C43.4453 96.52 42.9733 96.62 42.4293 96.62ZM47.1766 96.5V87.74H52.2166V88.724H48.2446V91.436H51.7966V92.396H48.2446V95.516H52.2166V96.5H47.1766ZM56.7719 96.62C56.2439 96.62 55.7879 96.52 55.4039 96.32C55.0279 96.12 54.7359 95.832 54.5279 95.456C54.3279 95.072 54.2279 94.62 54.2279 94.1V90.14C54.2279 89.612 54.3279 89.16 54.5279 88.784C54.7359 88.408 55.0279 88.12 55.4039 87.92C55.7879 87.72 56.2439 87.62 56.7719 87.62C57.2999 87.62 57.7519 87.72 58.1279 87.92C58.5119 88.12 58.8039 88.408 59.0039 88.784C59.2119 89.16 59.3159 89.608 59.3159 90.128V94.1C59.3159 94.62 59.2119 95.072 59.0039 95.456C58.8039 95.832 58.5119 96.12 58.1279 96.32C57.7519 96.52 57.2999 96.62 56.7719 96.62ZM56.7719 95.648C57.2439 95.648 57.6039 95.516 57.8519 95.252C58.1079 94.98 58.2359 94.596 58.2359 94.1V90.14C58.2359 89.644 58.1079 89.264 57.8519 89C57.6039 88.728 57.2439 88.592 56.7719 88.592C56.3079 88.592 55.9479 88.728 55.6919 89C55.4359 89.264 55.3079 89.644 55.3079 90.14V94.1C55.3079 94.596 55.4359 94.98 55.6919 95.252C55.9479 95.516 56.3079 95.648 56.7719 95.648Z" fill="#DDDDDD"/>
<rect y="160" width="164" height="25" rx="12.5" fill="#F4322C"/>
<path d="M11.104 176.5V167.74H13.924C14.468 167.74 14.94 167.848 15.34 168.064C15.74 168.272 16.048 168.568 16.264 168.952C16.488 169.336 16.6 169.792 16.6 170.32C16.6 170.84 16.488 171.296 16.264 171.688C16.048 172.072 15.74 172.372 15.34 172.588C14.94 172.796 14.468 172.9 13.924 172.9H12.184V176.5H11.104ZM12.184 171.928H13.924C14.396 171.928 14.772 171.784 15.052 171.496C15.34 171.2 15.484 170.808 15.484 170.32C15.484 169.824 15.34 169.432 15.052 169.144C14.772 168.856 14.396 168.712 13.924 168.712H12.184V171.928ZM20.7953 176.62C20.2753 176.62 19.8193 176.516 19.4273 176.308C19.0433 176.1 18.7433 175.808 18.5273 175.432C18.3193 175.048 18.2153 174.604 18.2153 174.1V172.3C18.2153 171.788 18.3193 171.344 18.5273 170.968C18.7433 170.592 19.0433 170.3 19.4273 170.092C19.8193 169.884 20.2753 169.78 20.7953 169.78C21.3153 169.78 21.7673 169.884 22.1513 170.092C22.5433 170.3 22.8433 170.592 23.0513 170.968C23.2673 171.344 23.3753 171.788 23.3753 172.3V173.464H19.2713V174.1C19.2713 174.62 19.4033 175.02 19.6673 175.3C19.9313 175.572 20.3073 175.708 20.7953 175.708C21.2113 175.708 21.5473 175.636 21.8033 175.492C22.0593 175.34 22.2153 175.116 22.2713 174.82H23.3513C23.2793 175.372 23.0073 175.812 22.5353 176.14C22.0713 176.46 21.4913 176.62 20.7953 176.62ZM22.3193 172.744V172.3C22.3193 171.78 22.1873 171.38 21.9233 171.1C21.6673 170.82 21.2913 170.68 20.7953 170.68C20.3073 170.68 19.9313 170.82 19.6673 171.1C19.4033 171.38 19.2713 171.78 19.2713 172.3V172.648H22.4033L22.3193 172.744ZM25.6986 176.5V169.9H26.7786V171.16H27.0066L26.7786 171.412C26.7786 170.892 26.9346 170.492 27.2466 170.212C27.5586 169.924 27.9906 169.78 28.5426 169.78C29.2306 169.78 29.7786 170 30.1866 170.44C30.5946 170.872 30.7986 171.46 30.7986 172.204V172.66H29.7186V172.3C29.7186 171.796 29.5906 171.408 29.3346 171.136C29.0786 170.856 28.7066 170.716 28.2186 170.716C27.7546 170.716 27.3986 170.852 27.1506 171.124C26.9026 171.388 26.7786 171.78 26.7786 172.3V176.5H25.6986ZM34.2259 176.5V171.544H32.3059V170.56H34.2259V169.42C34.2259 168.9 34.3899 168.492 34.7179 168.196C35.0459 167.892 35.4979 167.74 36.0739 167.74H38.0059V168.724H36.0739C35.8259 168.724 35.6339 168.784 35.4979 168.904C35.3699 169.016 35.3059 169.188 35.3059 169.42V170.56H38.0059V171.544H35.3059V176.5H34.2259ZM42.3813 176.596C41.8533 176.596 41.3933 176.496 41.0013 176.296C40.6173 176.088 40.3213 175.796 40.1133 175.42C39.9053 175.044 39.8013 174.596 39.8013 174.076V172.324C39.8013 171.804 39.9053 171.356 40.1133 170.98C40.3213 170.604 40.6173 170.316 41.0013 170.116C41.3933 169.908 41.8533 169.804 42.3813 169.804C42.9173 169.804 43.3773 169.908 43.7613 170.116C44.1453 170.316 44.4413 170.604 44.6493 170.98C44.8573 171.348 44.9613 171.792 44.9613 172.312V174.076C44.9613 174.596 44.8573 175.044 44.6493 175.42C44.4413 175.796 44.1453 176.088 43.7613 176.296C43.3773 176.496 42.9173 176.596 42.3813 176.596ZM42.3813 175.636C42.8533 175.636 43.2213 175.504 43.4853 175.24C43.7493 174.976 43.8813 174.588 43.8813 174.076V172.324C43.8813 171.812 43.7493 171.424 43.4853 171.16C43.2213 170.896 42.8533 170.764 42.3813 170.764C41.9173 170.764 41.5493 170.896 41.2773 171.16C41.0133 171.424 40.8813 171.812 40.8813 172.324V174.076C40.8813 174.588 41.0133 174.976 41.2773 175.24C41.5493 175.504 41.9173 175.636 42.3813 175.636ZM47.2846 176.5V169.9H48.3646V171.16H48.5926L48.3646 171.412C48.3646 170.892 48.5206 170.492 48.8326 170.212C49.1446 169.924 49.5766 169.78 50.1286 169.78C50.8166 169.78 51.3646 170 51.7726 170.44C52.1806 170.872 52.3846 171.46 52.3846 172.204V172.66H51.3046V172.3C51.3046 171.796 51.1766 171.408 50.9206 171.136C50.6646 170.856 50.2926 170.716 49.8046 170.716C49.3406 170.716 48.9846 170.852 48.7366 171.124C48.4886 171.388 48.3646 171.78 48.3646 172.3V176.5H47.2846ZM53.8919 176.5V169.9H54.8399V170.692H55.0559L54.8879 170.98C54.8879 170.628 54.9919 170.34 55.1999 170.116C55.4079 169.892 55.6799 169.78 56.0159 169.78C56.3679 169.78 56.6519 169.924 56.8679 170.212C57.0919 170.5 57.2039 170.876 57.2039 171.34L56.8799 170.692H57.3839L57.1559 170.98C57.1559 170.628 57.2599 170.34 57.4679 170.116C57.6839 169.892 57.9639 169.78 58.3079 169.78C58.7079 169.78 59.0319 169.94 59.2799 170.26C59.5279 170.572 59.6519 170.98 59.6519 171.484V176.5H58.6559V171.472C58.6559 171.192 58.5919 170.98 58.4639 170.836C58.3439 170.684 58.1679 170.608 57.9359 170.608C57.7039 170.608 57.5239 170.684 57.3959 170.836C57.2679 170.98 57.2039 171.188 57.2039 171.46V176.5H56.3399V171.472C56.3399 171.192 56.2719 170.98 56.1359 170.836C56.0079 170.684 55.8279 170.608 55.5959 170.608C55.3719 170.608 55.1959 170.684 55.0679 170.836C54.9479 170.98 54.8879 171.188 54.8879 171.46V176.5H53.8919ZM63.3912 176.62C62.6952 176.62 62.1472 176.444 61.7472 176.092C61.3472 175.732 61.1472 175.248 61.1472 174.64C61.1472 174.024 61.3472 173.54 61.7472 173.188C62.1472 172.836 62.6872 172.66 63.3672 172.66H65.4072V172C65.4072 171.6 65.2832 171.288 65.0352 171.064C64.7952 170.84 64.4592 170.728 64.0272 170.728C63.6432 170.728 63.3192 170.812 63.0552 170.98C62.7912 171.148 62.6272 171.368 62.5632 171.64H61.4832C61.5232 171.272 61.6552 170.948 61.8792 170.668C62.1112 170.388 62.4112 170.172 62.7792 170.02C63.1552 169.86 63.5712 169.78 64.0272 169.78C64.7872 169.78 65.3872 169.976 65.8272 170.368C66.2672 170.76 66.4872 171.292 66.4872 171.964V176.5H65.4312V175.24H65.2512L65.4312 175.06C65.4312 175.54 65.2432 175.92 64.8672 176.2C64.4992 176.48 64.0072 176.62 63.3912 176.62ZM63.6552 175.768C64.1672 175.768 64.5872 175.64 64.9152 175.384C65.2432 175.128 65.4072 174.8 65.4072 174.4V173.464H63.3912C63.0312 173.464 62.7472 173.564 62.5392 173.764C62.3312 173.964 62.2272 174.236 62.2272 174.58C62.2272 174.948 62.3512 175.24 62.5992 175.456C62.8552 175.664 63.2072 175.768 63.6552 175.768ZM68.6665 176.5V169.9H69.7465V171.16H69.9745L69.7465 171.412C69.7465 170.892 69.9025 170.492 70.2145 170.212C70.5265 169.924 70.9585 169.78 71.5105 169.78C72.1745 169.78 72.7025 169.984 73.0945 170.392C73.4865 170.8 73.6825 171.356 73.6825 172.06V176.5H72.6025V172.18C72.6025 171.708 72.4745 171.348 72.2185 171.1C71.9705 170.844 71.6305 170.716 71.1985 170.716C70.7505 170.716 70.3945 170.852 70.1305 171.124C69.8745 171.396 69.7465 171.788 69.7465 172.3V176.5H68.6665ZM78.4058 176.62C77.8778 176.62 77.4138 176.52 77.0138 176.32C76.6218 176.12 76.3178 175.832 76.1018 175.456C75.8858 175.072 75.7778 174.62 75.7778 174.1V172.3C75.7778 171.772 75.8858 171.32 76.1018 170.944C76.3178 170.568 76.6218 170.28 77.0138 170.08C77.4138 169.88 77.8778 169.78 78.4058 169.78C79.1658 169.78 79.7778 169.984 80.2418 170.392C80.7058 170.8 80.9498 171.356 80.9738 172.06H79.8938C79.8698 171.636 79.7258 171.312 79.4618 171.088C79.2058 170.856 78.8538 170.74 78.4058 170.74C77.9338 170.74 77.5578 170.876 77.2778 171.148C76.9978 171.412 76.8578 171.792 76.8578 172.288V174.1C76.8578 174.596 76.9978 174.98 77.2778 175.252C77.5578 175.524 77.9338 175.66 78.4058 175.66C78.8538 175.66 79.2058 175.544 79.4618 175.312C79.7258 175.08 79.8698 174.756 79.8938 174.34H80.9738C80.9498 175.044 80.7058 175.6 80.2418 176.008C79.7778 176.416 79.1658 176.62 78.4058 176.62ZM85.5531 176.62C85.0331 176.62 84.5771 176.516 84.1851 176.308C83.8011 176.1 83.5011 175.808 83.2851 175.432C83.0771 175.048 82.9731 174.604 82.9731 174.1V172.3C82.9731 171.788 83.0771 171.344 83.2851 170.968C83.5011 170.592 83.8011 170.3 84.1851 170.092C84.5771 169.884 85.0331 169.78 85.5531 169.78C86.0731 169.78 86.5251 169.884 86.9091 170.092C87.3011 170.3 87.6011 170.592 87.8091 170.968C88.0251 171.344 88.1331 171.788 88.1331 172.3V173.464H84.0291V174.1C84.0291 174.62 84.1611 175.02 84.4251 175.3C84.6891 175.572 85.0651 175.708 85.5531 175.708C85.9691 175.708 86.3051 175.636 86.5611 175.492C86.8171 175.34 86.9731 175.116 87.0291 174.82H88.1091C88.0371 175.372 87.7651 175.812 87.2931 176.14C86.8291 176.46 86.2491 176.62 85.5531 176.62ZM87.0771 172.744V172.3C87.0771 171.78 86.9451 171.38 86.6811 171.1C86.4251 170.82 86.0491 170.68 85.5531 170.68C85.0651 170.68 84.6891 170.82 84.4251 171.1C84.1611 171.38 84.0291 171.78 84.0291 172.3V172.648H87.1611L87.0771 172.744ZM97.5438 176.5V167.74H102.584V168.724H98.6118V171.436H102.164V172.396H98.6118V175.516H102.584V176.5H97.5438ZM104.643 176.5V169.9H105.723V171.16H105.951L105.723 171.412C105.723 170.892 105.879 170.492 106.191 170.212C106.503 169.924 106.935 169.78 107.487 169.78C108.151 169.78 108.679 169.984 109.071 170.392C109.463 170.8 109.659 171.356 109.659 172.06V176.5H108.579V172.18C108.579 171.708 108.451 171.348 108.195 171.1C107.947 170.844 107.607 170.716 107.175 170.716C106.727 170.716 106.371 170.852 106.107 171.124C105.851 171.396 105.723 171.788 105.723 172.3V176.5H104.643ZM112.666 178.66V177.676H114.766C115.102 177.676 115.346 177.6 115.498 177.448C115.658 177.296 115.738 177.06 115.738 176.74V175.9L115.762 174.7H115.546L115.75 174.52C115.75 175 115.59 175.38 115.27 175.66C114.95 175.94 114.522 176.08 113.986 176.08C113.306 176.08 112.77 175.86 112.378 175.42C111.986 174.972 111.79 174.372 111.79 173.62V172.228C111.79 171.476 111.986 170.88 112.378 170.44C112.77 170 113.306 169.78 113.986 169.78C114.522 169.78 114.95 169.92 115.27 170.2C115.59 170.48 115.75 170.86 115.75 171.34L115.546 171.16H115.75V169.9H116.818V176.74C116.818 177.332 116.634 177.8 116.266 178.144C115.906 178.488 115.402 178.66 114.754 178.66H112.666ZM114.31 175.144C114.758 175.144 115.11 175.004 115.366 174.724C115.622 174.444 115.75 174.056 115.75 173.56V172.3C115.75 171.804 115.622 171.416 115.366 171.136C115.11 170.856 114.758 170.716 114.31 170.716C113.854 170.716 113.498 170.852 113.242 171.124C112.994 171.396 112.87 171.788 112.87 172.3V173.56C112.87 174.072 112.994 174.464 113.242 174.736C113.498 175.008 113.854 175.144 114.31 175.144ZM118.95 176.5V175.516H121.29V170.884H119.19V169.9H122.37V175.516H124.59V176.5H118.95ZM121.71 168.712C121.446 168.712 121.238 168.644 121.086 168.508C120.934 168.372 120.858 168.188 120.858 167.956C120.858 167.716 120.934 167.528 121.086 167.392C121.238 167.248 121.446 167.176 121.71 167.176C121.974 167.176 122.182 167.248 122.334 167.392C122.486 167.528 122.562 167.716 122.562 167.956C122.562 168.188 122.486 168.372 122.334 168.508C122.182 168.644 121.974 168.712 121.71 168.712ZM126.229 176.5V169.9H127.309V171.16H127.537L127.309 171.412C127.309 170.892 127.465 170.492 127.777 170.212C128.089 169.924 128.521 169.78 129.073 169.78C129.737 169.78 130.265 169.984 130.657 170.392C131.049 170.8 131.245 171.356 131.245 172.06V176.5H130.165V172.18C130.165 171.708 130.037 171.348 129.781 171.1C129.533 170.844 129.193 170.716 128.761 170.716C128.313 170.716 127.957 170.852 127.693 171.124C127.437 171.396 127.309 171.788 127.309 172.3V176.5H126.229ZM135.92 176.62C135.4 176.62 134.944 176.516 134.552 176.308C134.168 176.1 133.868 175.808 133.652 175.432C133.444 175.048 133.34 174.604 133.34 174.1V172.3C133.34 171.788 133.444 171.344 133.652 170.968C133.868 170.592 134.168 170.3 134.552 170.092C134.944 169.884 135.4 169.78 135.92 169.78C136.44 169.78 136.892 169.884 137.276 170.092C137.668 170.3 137.968 170.592 138.176 170.968C138.392 171.344 138.5 171.788 138.5 172.3V173.464H134.396V174.1C134.396 174.62 134.528 175.02 134.792 175.3C135.056 175.572 135.432 175.708 135.92 175.708C136.336 175.708 136.672 175.636 136.928 175.492C137.184 175.34 137.34 175.116 137.396 174.82H138.476C138.404 175.372 138.132 175.812 137.66 176.14C137.196 176.46 136.616 176.62 135.92 176.62ZM137.444 172.744V172.3C137.444 171.78 137.312 171.38 137.048 171.1C136.792 170.82 136.416 170.68 135.92 170.68C135.432 170.68 135.056 170.82 134.792 171.1C134.528 171.38 134.396 171.78 134.396 172.3V172.648H137.528L137.444 172.744ZM143.116 176.62C142.596 176.62 142.14 176.516 141.748 176.308C141.364 176.1 141.064 175.808 140.848 175.432C140.64 175.048 140.536 174.604 140.536 174.1V172.3C140.536 171.788 140.64 171.344 140.848 170.968C141.064 170.592 141.364 170.3 141.748 170.092C142.14 169.884 142.596 169.78 143.116 169.78C143.636 169.78 144.088 169.884 144.472 170.092C144.864 170.3 145.164 170.592 145.372 170.968C145.588 171.344 145.696 171.788 145.696 172.3V173.464H141.592V174.1C141.592 174.62 141.724 175.02 141.988 175.3C142.252 175.572 142.628 175.708 143.116 175.708C143.532 175.708 143.868 175.636 144.124 175.492C144.38 175.34 144.536 175.116 144.592 174.82H145.672C145.6 175.372 145.328 175.812 144.856 176.14C144.392 176.46 143.812 176.62 143.116 176.62ZM144.64 172.744V172.3C144.64 171.78 144.508 171.38 144.244 171.1C143.988 170.82 143.612 170.68 143.116 170.68C142.628 170.68 142.252 170.82 141.988 171.1C141.724 171.38 141.592 171.78 141.592 172.3V172.648H144.724L144.64 172.744ZM148.019 176.5V169.9H149.099V171.16H149.327L149.099 171.412C149.099 170.892 149.255 170.492 149.567 170.212C149.879 169.924 150.311 169.78 150.863 169.78C151.551 169.78 152.099 170 152.507 170.44C152.915 170.872 153.119 171.46 153.119 172.204V172.66H152.039V172.3C152.039 171.796 151.911 171.408 151.655 171.136C151.399 170.856 151.027 170.716 150.539 170.716C150.075 170.716 149.719 170.852 149.471 171.124C149.223 171.388 149.099 171.78 149.099 172.3V176.5H148.019Z" fill="#DDDDDD"/>
<rect y="40" width="71" height="25" rx="12.5" fill="#F4322C"/>
<path d="M13.648 56.62C13.12 56.62 12.66 56.52 12.268 56.32C11.884 56.12 11.584 55.832 11.368 55.456C11.16 55.072 11.056 54.62 11.056 54.1V50.14C11.056 49.612 11.16 49.16 11.368 48.784C11.584 48.408 11.884 48.12 12.268 47.92C12.66 47.72 13.12 47.62 13.648 47.62C14.176 47.62 14.632 47.724 15.016 47.932C15.4 48.132 15.696 48.42 15.904 48.796C16.112 49.172 16.216 49.62 16.216 50.14H15.136C15.136 49.644 15.004 49.264 14.74 49C14.484 48.728 14.12 48.592 13.648 48.592C13.176 48.592 12.804 48.724 12.532 48.988C12.268 49.252 12.136 49.632 12.136 50.128V54.1C12.136 54.596 12.268 54.98 12.532 55.252C12.804 55.516 13.176 55.648 13.648 55.648C14.12 55.648 14.484 55.516 14.74 55.252C15.004 54.98 15.136 54.596 15.136 54.1H16.216C16.216 54.612 16.112 55.06 15.904 55.444C15.696 55.82 15.4 56.112 15.016 56.32C14.632 56.52 14.176 56.62 13.648 56.62ZM19.3433 58.66L20.3153 56.092L17.7953 49.9H18.9713L20.5793 53.98C20.6353 54.116 20.6873 54.28 20.7353 54.472C20.7913 54.656 20.8353 54.812 20.8673 54.94C20.8993 54.812 20.9433 54.656 20.9993 54.472C21.0553 54.28 21.1113 54.116 21.1673 53.98L22.6673 49.9H23.7953L20.4713 58.66H19.3433ZM25.5066 58.66V49.9H26.5866V51.16H26.8026L26.5866 51.412C26.5866 50.908 26.7506 50.512 27.0786 50.224C27.4146 49.928 27.8546 49.78 28.3986 49.78C29.0626 49.78 29.5906 50 29.9826 50.44C30.3826 50.872 30.5826 51.468 30.5826 52.228V54.16C30.5826 54.664 30.4906 55.1 30.3066 55.468C30.1306 55.836 29.8786 56.12 29.5506 56.32C29.2306 56.52 28.8466 56.62 28.3986 56.62C27.8626 56.62 27.4266 56.472 27.0906 56.176C26.7546 55.88 26.5866 55.484 26.5866 54.988L26.8026 55.24H26.5626L26.5866 56.74V58.66H25.5066ZM28.0386 55.684C28.4946 55.684 28.8506 55.548 29.1066 55.276C29.3706 55.004 29.5026 54.612 29.5026 54.1V52.3C29.5026 51.788 29.3706 51.396 29.1066 51.124C28.8506 50.852 28.4946 50.716 28.0386 50.716C27.5986 50.716 27.2466 50.856 26.9826 51.136C26.7186 51.416 26.5866 51.804 26.5866 52.3V54.1C26.5866 54.596 26.7186 54.984 26.9826 55.264C27.2466 55.544 27.5986 55.684 28.0386 55.684ZM32.8939 56.5V49.9H33.9739V51.16H34.2019L33.9739 51.412C33.9739 50.892 34.1299 50.492 34.4419 50.212C34.7539 49.924 35.1859 49.78 35.7379 49.78C36.4259 49.78 36.9739 50 37.3819 50.44C37.7899 50.872 37.9939 51.46 37.9939 52.204V52.66H36.9139V52.3C36.9139 51.796 36.7859 51.408 36.5299 51.136C36.2739 50.856 35.9019 50.716 35.4139 50.716C34.9499 50.716 34.5939 50.852 34.3459 51.124C34.0979 51.388 33.9739 51.78 33.9739 52.3V56.5H32.8939ZM42.3813 56.62C41.8613 56.62 41.4053 56.516 41.0133 56.308C40.6293 56.1 40.3293 55.808 40.1133 55.432C39.9053 55.048 39.8013 54.604 39.8013 54.1V52.3C39.8013 51.788 39.9053 51.344 40.1133 50.968C40.3293 50.592 40.6293 50.3 41.0133 50.092C41.4053 49.884 41.8613 49.78 42.3813 49.78C42.9013 49.78 43.3533 49.884 43.7373 50.092C44.1293 50.3 44.4293 50.592 44.6373 50.968C44.8533 51.344 44.9613 51.788 44.9613 52.3V53.464H40.8573V54.1C40.8573 54.62 40.9893 55.02 41.2533 55.3C41.5173 55.572 41.8933 55.708 42.3813 55.708C42.7973 55.708 43.1333 55.636 43.3893 55.492C43.6453 55.34 43.8013 55.116 43.8573 54.82H44.9373C44.8653 55.372 44.5933 55.812 44.1213 56.14C43.6573 56.46 43.0773 56.62 42.3813 56.62ZM43.9053 52.744V52.3C43.9053 51.78 43.7733 51.38 43.5093 51.1C43.2533 50.82 42.8773 50.68 42.3813 50.68C41.8933 50.68 41.5173 50.82 41.2533 51.1C40.9893 51.38 40.8573 51.78 40.8573 52.3V52.648H43.9893L43.9053 52.744ZM49.3726 56.596C48.9246 56.596 48.5246 56.528 48.1726 56.392C47.8206 56.248 47.5446 56.044 47.3446 55.78C47.1526 55.516 47.0566 55.204 47.0566 54.844H48.1606C48.1606 55.092 48.2766 55.288 48.5086 55.432C48.7486 55.568 49.0446 55.636 49.3966 55.636H49.9006C50.3246 55.636 50.6406 55.552 50.8486 55.384C51.0566 55.208 51.1606 54.976 51.1606 54.688C51.1606 54.408 51.0606 54.188 50.8606 54.028C50.6686 53.86 50.3886 53.748 50.0206 53.692L49.1326 53.548C48.4766 53.436 47.9926 53.228 47.6806 52.924C47.3686 52.62 47.2126 52.2 47.2126 51.664C47.2126 51.064 47.4046 50.604 47.7886 50.284C48.1806 49.964 48.7406 49.804 49.4686 49.804H49.9246C50.5966 49.804 51.1326 49.956 51.5326 50.26C51.9406 50.556 52.1446 50.952 52.1446 51.448H51.0406C51.0406 51.24 50.9366 51.076 50.7286 50.956C50.5286 50.828 50.2526 50.764 49.9006 50.764H49.4446C49.0686 50.764 48.7766 50.844 48.5686 51.004C48.3686 51.156 48.2686 51.376 48.2686 51.664C48.2686 52.144 48.6086 52.44 49.2886 52.552L50.1766 52.696C50.8886 52.808 51.4046 53.016 51.7246 53.32C52.0526 53.624 52.2166 54.064 52.2166 54.64C52.2166 55.248 52.0206 55.728 51.6286 56.08C51.2446 56.424 50.6606 56.596 49.8766 56.596H49.3726ZM56.5679 56.596C56.1199 56.596 55.7199 56.528 55.3679 56.392C55.0159 56.248 54.7399 56.044 54.5399 55.78C54.3479 55.516 54.2519 55.204 54.2519 54.844H55.3559C55.3559 55.092 55.4719 55.288 55.7039 55.432C55.9439 55.568 56.2399 55.636 56.5919 55.636H57.0959C57.5199 55.636 57.8359 55.552 58.0439 55.384C58.2519 55.208 58.3559 54.976 58.3559 54.688C58.3559 54.408 58.2559 54.188 58.0559 54.028C57.8639 53.86 57.5839 53.748 57.2159 53.692L56.3279 53.548C55.6719 53.436 55.1879 53.228 54.8759 52.924C54.5639 52.62 54.4079 52.2 54.4079 51.664C54.4079 51.064 54.5999 50.604 54.9839 50.284C55.3759 49.964 55.9359 49.804 56.6639 49.804H57.1199C57.7919 49.804 58.3279 49.956 58.7279 50.26C59.1359 50.556 59.3399 50.952 59.3399 51.448H58.2359C58.2359 51.24 58.1319 51.076 57.9239 50.956C57.7239 50.828 57.4479 50.764 57.0959 50.764H56.6399C56.2639 50.764 55.9719 50.844 55.7639 51.004C55.5639 51.156 55.4639 51.376 55.4639 51.664C55.4639 52.144 55.8039 52.44 56.4839 52.552L57.3719 52.696C58.0839 52.808 58.5999 53.016 58.9199 53.32C59.2479 53.624 59.4119 54.064 59.4119 54.64C59.4119 55.248 59.2159 55.728 58.8239 56.08C58.4399 56.424 57.8559 56.596 57.0719 56.596H56.5679Z" fill="#DDDDDD"/>
<rect y="120" width="71" height="25" rx="12.5" fill="#F4322C"/>
<path d="M11.116 136.5V127.74H12.196V131.484H15.004V127.74H16.084V136.5H15.004V132.468H12.196V136.5H11.116ZM20.7953 136.596C20.2673 136.596 19.8073 136.496 19.4153 136.296C19.0313 136.088 18.7353 135.796 18.5273 135.42C18.3193 135.044 18.2153 134.596 18.2153 134.076V132.324C18.2153 131.804 18.3193 131.356 18.5273 130.98C18.7353 130.604 19.0313 130.316 19.4153 130.116C19.8073 129.908 20.2673 129.804 20.7953 129.804C21.3313 129.804 21.7913 129.908 22.1753 130.116C22.5593 130.316 22.8553 130.604 23.0633 130.98C23.2713 131.348 23.3753 131.792 23.3753 132.312V134.076C23.3753 134.596 23.2713 135.044 23.0633 135.42C22.8553 135.796 22.5593 136.088 22.1753 136.296C21.7913 136.496 21.3313 136.596 20.7953 136.596ZM20.7953 135.636C21.2673 135.636 21.6353 135.504 21.8993 135.24C22.1633 134.976 22.2953 134.588 22.2953 134.076V132.324C22.2953 131.812 22.1633 131.424 21.8993 131.16C21.6353 130.896 21.2673 130.764 20.7953 130.764C20.3313 130.764 19.9633 130.896 19.6913 131.16C19.4273 131.424 19.2953 131.812 19.2953 132.324V134.076C19.2953 134.588 19.4273 134.976 19.6913 135.24C19.9633 135.504 20.3313 135.636 20.7953 135.636ZM27.7866 136.596C27.3386 136.596 26.9386 136.528 26.5866 136.392C26.2346 136.248 25.9586 136.044 25.7586 135.78C25.5666 135.516 25.4706 135.204 25.4706 134.844H26.5746C26.5746 135.092 26.6906 135.288 26.9226 135.432C27.1626 135.568 27.4586 135.636 27.8106 135.636H28.3146C28.7386 135.636 29.0546 135.552 29.2626 135.384C29.4706 135.208 29.5746 134.976 29.5746 134.688C29.5746 134.408 29.4746 134.188 29.2746 134.028C29.0826 133.86 28.8026 133.748 28.4346 133.692L27.5466 133.548C26.8906 133.436 26.4066 133.228 26.0946 132.924C25.7826 132.62 25.6266 132.2 25.6266 131.664C25.6266 131.064 25.8186 130.604 26.2026 130.284C26.5946 129.964 27.1546 129.804 27.8826 129.804H28.3386C29.0106 129.804 29.5466 129.956 29.9466 130.26C30.3546 130.556 30.5586 130.952 30.5586 131.448H29.4546C29.4546 131.24 29.3506 131.076 29.1426 130.956C28.9426 130.828 28.6666 130.764 28.3146 130.764H27.8586C27.4826 130.764 27.1906 130.844 26.9826 131.004C26.7826 131.156 26.6826 131.376 26.6826 131.664C26.6826 132.144 27.0226 132.44 27.7026 132.552L28.5906 132.696C29.3026 132.808 29.8186 133.016 30.1386 133.32C30.4666 133.624 30.6306 134.064 30.6306 134.64C30.6306 135.248 30.4346 135.728 30.0426 136.08C29.6586 136.424 29.0746 136.596 28.2906 136.596H27.7866ZM35.9059 136.5C35.3619 136.5 34.9259 136.344 34.5979 136.032C34.2699 135.712 34.1059 135.288 34.1059 134.76V130.884H32.2459V129.9H34.1059V128.04H35.1859V129.9H37.8259V130.884H35.1859V134.76C35.1859 134.984 35.2499 135.168 35.3779 135.312C35.5139 135.448 35.6899 135.516 35.9059 135.516H37.7059V136.5H35.9059ZM39.8013 136.5V135.516H42.1413V130.884H40.0413V129.9H43.2213V135.516H45.4413V136.5H39.8013ZM42.5613 128.712C42.2973 128.712 42.0893 128.644 41.9373 128.508C41.7853 128.372 41.7093 128.188 41.7093 127.956C41.7093 127.716 41.7853 127.528 41.9373 127.392C42.0893 127.248 42.2973 127.176 42.5613 127.176C42.8253 127.176 43.0333 127.248 43.1853 127.392C43.3373 127.528 43.4133 127.716 43.4133 127.956C43.4133 128.188 43.3373 128.372 43.1853 128.508C43.0333 128.644 42.8253 128.712 42.5613 128.712ZM47.0806 136.5V129.9H48.1606V131.16H48.3886L48.1606 131.412C48.1606 130.892 48.3166 130.492 48.6286 130.212C48.9406 129.924 49.3726 129.78 49.9246 129.78C50.5886 129.78 51.1166 129.984 51.5086 130.392C51.9006 130.8 52.0966 131.356 52.0966 132.06V136.5H51.0166V132.18C51.0166 131.708 50.8886 131.348 50.6326 131.1C50.3846 130.844 50.0446 130.716 49.6126 130.716C49.1646 130.716 48.8086 130.852 48.5446 131.124C48.2886 131.396 48.1606 131.788 48.1606 132.3V136.5H47.0806ZM55.1039 138.66V137.676H57.2039C57.5399 137.676 57.7839 137.6 57.9359 137.448C58.0959 137.296 58.1759 137.06 58.1759 136.74V135.9L58.1999 134.7H57.9839L58.1879 134.52C58.1879 135 58.0279 135.38 57.7079 135.66C57.3879 135.94 56.9599 136.08 56.4239 136.08C55.7439 136.08 55.2079 135.86 54.8159 135.42C54.4239 134.972 54.2279 134.372 54.2279 133.62V132.228C54.2279 131.476 54.4239 130.88 54.8159 130.44C55.2079 130 55.7439 129.78 56.4239 129.78C56.9599 129.78 57.3879 129.92 57.7079 130.2C58.0279 130.48 58.1879 130.86 58.1879 131.34L57.9839 131.16H58.1879V129.9H59.2559V136.74C59.2559 137.332 59.0719 137.8 58.7039 138.144C58.3439 138.488 57.8399 138.66 57.1919 138.66H55.1039ZM56.7479 135.144C57.1959 135.144 57.5479 135.004 57.8039 134.724C58.0599 134.444 58.1879 134.056 58.1879 133.56V132.3C58.1879 131.804 58.0599 131.416 57.8039 131.136C57.5479 130.856 57.1959 130.716 56.7479 130.716C56.2919 130.716 55.9359 130.852 55.6799 131.124C55.4319 131.396 55.3079 131.788 55.3079 132.3V133.56C55.3079 134.072 55.4319 134.464 55.6799 134.736C55.9359 135.008 56.2919 135.144 56.7479 135.144Z" fill="#DDDDDD"/>
<rect y="360" width="100" height="25" rx="12.5" fill="#F4322C"/>
<path d="M10.6 376.5L12.88 367.74H14.332L16.6 376.5H15.508L14.932 374.172H12.28L11.704 376.5H10.6ZM12.496 373.26H14.704L14.032 370.56C13.904 370.048 13.804 369.62 13.732 369.276C13.66 368.932 13.616 368.708 13.6 368.604C13.584 368.708 13.54 368.932 13.468 369.276C13.396 369.62 13.296 370.044 13.168 370.548L12.496 373.26ZM18.2993 376.5V367.74H21.1193C21.6633 367.74 22.1353 367.848 22.5353 368.064C22.9353 368.272 23.2433 368.568 23.4593 368.952C23.6833 369.336 23.7953 369.792 23.7953 370.32C23.7953 370.84 23.6833 371.296 23.4593 371.688C23.2433 372.072 22.9353 372.372 22.5353 372.588C22.1353 372.796 21.6633 372.9 21.1193 372.9H19.3793V376.5H18.2993ZM19.3793 371.928H21.1193C21.5913 371.928 21.9673 371.784 22.2473 371.496C22.5353 371.2 22.6793 370.808 22.6793 370.32C22.6793 369.824 22.5353 369.432 22.2473 369.144C21.9673 368.856 21.5913 368.712 21.1193 368.712H19.3793V371.928ZM25.6506 376.5V375.516H27.4386V368.724H25.6506V367.74H30.3306V368.724H28.5426V375.516H30.3306V376.5H25.6506ZM42.4293 376.62C41.9013 376.62 41.4413 376.52 41.0493 376.32C40.6653 376.12 40.3653 375.832 40.1493 375.456C39.9413 375.072 39.8373 374.62 39.8373 374.1V370.14C39.8373 369.612 39.9413 369.16 40.1493 368.784C40.3653 368.408 40.6653 368.12 41.0493 367.92C41.4413 367.72 41.9013 367.62 42.4293 367.62C42.9573 367.62 43.4133 367.724 43.7973 367.932C44.1813 368.132 44.4773 368.42 44.6853 368.796C44.8933 369.172 44.9973 369.62 44.9973 370.14H43.9173C43.9173 369.644 43.7853 369.264 43.5213 369C43.2653 368.728 42.9013 368.592 42.4293 368.592C41.9573 368.592 41.5853 368.724 41.3133 368.988C41.0493 369.252 40.9173 369.632 40.9173 370.128V374.1C40.9173 374.596 41.0493 374.98 41.3133 375.252C41.5853 375.524 41.9573 375.66 42.4293 375.66C42.9013 375.66 43.2653 375.524 43.5213 375.252C43.7853 374.98 43.9173 374.596 43.9173 374.1V373.02H42.1413V372.036H44.9973V374.1C44.9973 374.612 44.8933 375.06 44.6853 375.444C44.4773 375.82 44.1813 376.112 43.7973 376.32C43.4133 376.52 42.9573 376.62 42.4293 376.62ZM49.0006 376.62C48.3046 376.62 47.7566 376.444 47.3566 376.092C46.9566 375.732 46.7566 375.248 46.7566 374.64C46.7566 374.024 46.9566 373.54 47.3566 373.188C47.7566 372.836 48.2966 372.66 48.9766 372.66H51.0166V372C51.0166 371.6 50.8926 371.288 50.6446 371.064C50.4046 370.84 50.0686 370.728 49.6366 370.728C49.2526 370.728 48.9286 370.812 48.6646 370.98C48.4006 371.148 48.2366 371.368 48.1726 371.64H47.0926C47.1326 371.272 47.2646 370.948 47.4886 370.668C47.7206 370.388 48.0206 370.172 48.3886 370.02C48.7646 369.86 49.1806 369.78 49.6366 369.78C50.3966 369.78 50.9966 369.976 51.4366 370.368C51.8766 370.76 52.0966 371.292 52.0966 371.964V376.5H51.0406V375.24H50.8606L51.0406 375.06C51.0406 375.54 50.8526 375.92 50.4766 376.2C50.1086 376.48 49.6166 376.62 49.0006 376.62ZM49.2646 375.768C49.7766 375.768 50.1966 375.64 50.5246 375.384C50.8526 375.128 51.0166 374.8 51.0166 374.4V373.464H49.0006C48.6406 373.464 48.3566 373.564 48.1486 373.764C47.9406 373.964 47.8366 374.236 47.8366 374.58C47.8366 374.948 47.9606 375.24 48.2086 375.456C48.4646 375.664 48.8166 375.768 49.2646 375.768ZM57.4919 376.5C56.9479 376.5 56.5119 376.344 56.1839 376.032C55.8559 375.712 55.6919 375.288 55.6919 374.76V370.884H53.8319V369.9H55.6919V368.04H56.7719V369.9H59.4119V370.884H56.7719V374.76C56.7719 374.984 56.8359 375.168 56.9639 375.312C57.0999 375.448 57.2759 375.516 57.4919 375.516H59.2919V376.5H57.4919ZM63.9672 376.62C63.4472 376.62 62.9912 376.516 62.5992 376.308C62.2152 376.1 61.9152 375.808 61.6992 375.432C61.4912 375.048 61.3872 374.604 61.3872 374.1V372.3C61.3872 371.788 61.4912 371.344 61.6992 370.968C61.9152 370.592 62.2152 370.3 62.5992 370.092C62.9912 369.884 63.4472 369.78 63.9672 369.78C64.4872 369.78 64.9392 369.884 65.3232 370.092C65.7152 370.3 66.0152 370.592 66.2232 370.968C66.4392 371.344 66.5472 371.788 66.5472 372.3V373.464H62.4432V374.1C62.4432 374.62 62.5752 375.02 62.8392 375.3C63.1032 375.572 63.4792 375.708 63.9672 375.708C64.3832 375.708 64.7192 375.636 64.9752 375.492C65.2312 375.34 65.3872 375.116 65.4432 374.82H66.5232C66.4512 375.372 66.1792 375.812 65.7072 376.14C65.2432 376.46 64.6632 376.62 63.9672 376.62ZM65.4912 372.744V372.3C65.4912 371.78 65.3592 371.38 65.0952 371.1C64.8392 370.82 64.4632 370.68 63.9672 370.68C63.4792 370.68 63.1032 370.82 62.8392 371.1C62.5752 371.38 62.4432 371.78 62.4432 372.3V372.648H65.5752L65.4912 372.744ZM69.0385 376.5L67.9825 369.9H68.9185L69.5785 374.58C69.6025 374.756 69.6265 374.948 69.6505 375.156C69.6745 375.356 69.6905 375.524 69.6985 375.66H69.7465C69.7625 375.524 69.7825 375.356 69.8065 375.156C69.8305 374.948 69.8585 374.756 69.8905 374.58L70.6225 369.9H71.7025L72.4345 374.58C72.4665 374.756 72.4945 374.948 72.5185 375.156C72.5505 375.356 72.5705 375.524 72.5785 375.66H72.6265C72.6425 375.524 72.6625 375.356 72.6865 375.156C72.7185 374.948 72.7465 374.756 72.7705 374.58L73.4545 369.9H74.3425L73.2385 376.5H72.0505L71.3425 371.94C71.3105 371.716 71.2785 371.492 71.2465 371.268C71.2145 371.044 71.1905 370.868 71.1745 370.74H71.1265C71.1185 370.868 71.0985 371.044 71.0665 371.268C71.0425 371.492 71.0105 371.716 70.9705 371.94L70.2265 376.5H69.0385ZM77.7818 376.62C77.0858 376.62 76.5378 376.444 76.1378 376.092C75.7378 375.732 75.5378 375.248 75.5378 374.64C75.5378 374.024 75.7378 373.54 76.1378 373.188C76.5378 372.836 77.0778 372.66 77.7578 372.66H79.7978V372C79.7978 371.6 79.6738 371.288 79.4258 371.064C79.1858 370.84 78.8498 370.728 78.4178 370.728C78.0338 370.728 77.7098 370.812 77.4458 370.98C77.1818 371.148 77.0178 371.368 76.9538 371.64H75.8738C75.9138 371.272 76.0458 370.948 76.2698 370.668C76.5018 370.388 76.8018 370.172 77.1698 370.02C77.5458 369.86 77.9618 369.78 78.4178 369.78C79.1778 369.78 79.7778 369.976 80.2178 370.368C80.6578 370.76 80.8778 371.292 80.8778 371.964V376.5H79.8218V375.24H79.6418L79.8218 375.06C79.8218 375.54 79.6338 375.92 79.2578 376.2C78.8898 376.48 78.3978 376.62 77.7818 376.62ZM78.0458 375.768C78.5578 375.768 78.9778 375.64 79.3058 375.384C79.6338 375.128 79.7978 374.8 79.7978 374.4V373.464H77.7818C77.4218 373.464 77.1378 373.564 76.9298 373.764C76.7218 373.964 76.6178 374.236 76.6178 374.58C76.6178 374.948 76.7418 375.24 76.9898 375.456C77.2458 375.664 77.5978 375.768 78.0458 375.768ZM84.1011 378.66L85.0731 376.092L82.5531 369.9H83.7291L85.3371 373.98C85.3931 374.116 85.4451 374.28 85.4931 374.472C85.5491 374.656 85.5931 374.812 85.6251 374.94C85.6571 374.812 85.7011 374.656 85.7571 374.472C85.8131 374.28 85.8691 374.116 85.9251 373.98L87.4251 369.9H88.5531L85.2291 378.66H84.1011Z" fill="#DDDDDD"/>
<rect y="320" width="114" height="25" rx="12.5" fill="#F4322C"/>
<path d="M10.912 336.5V327.74H12.328L13.264 330.572C13.352 330.828 13.424 331.084 13.48 331.34C13.544 331.588 13.592 331.78 13.624 331.916C13.656 331.78 13.704 331.588 13.768 331.34C13.832 331.084 13.904 330.824 13.984 330.56L14.872 327.74H16.288V336.5H15.232V332.36C15.232 331.888 15.244 331.42 15.268 330.956C15.3 330.492 15.34 330.036 15.388 329.588C15.436 329.132 15.488 328.696 15.544 328.28L14.116 332.66H13.084L11.644 328.28C11.7 328.68 11.752 329.096 11.8 329.528C11.848 329.952 11.888 330.4 11.92 330.872C11.952 331.336 11.968 331.832 11.968 332.36V336.5H10.912ZM18.2153 336.5V335.516H20.5553V330.884H18.4553V329.9H21.6353V335.516H23.8553V336.5H18.2153ZM20.9753 328.712C20.7113 328.712 20.5033 328.644 20.3513 328.508C20.1993 328.372 20.1233 328.188 20.1233 327.956C20.1233 327.716 20.1993 327.528 20.3513 327.392C20.5033 327.248 20.7113 327.176 20.9753 327.176C21.2393 327.176 21.4473 327.248 21.5993 327.392C21.7513 327.528 21.8273 327.716 21.8273 327.956C21.8273 328.188 21.7513 328.372 21.5993 328.508C21.4473 328.644 21.2393 328.712 20.9753 328.712ZM28.0386 336.62C27.5106 336.62 27.0466 336.52 26.6466 336.32C26.2546 336.12 25.9506 335.832 25.7346 335.456C25.5186 335.072 25.4106 334.62 25.4106 334.1V332.3C25.4106 331.772 25.5186 331.32 25.7346 330.944C25.9506 330.568 26.2546 330.28 26.6466 330.08C27.0466 329.88 27.5106 329.78 28.0386 329.78C28.7986 329.78 29.4106 329.984 29.8746 330.392C30.3386 330.8 30.5826 331.356 30.6066 332.06H29.5266C29.5026 331.636 29.3586 331.312 29.0946 331.088C28.8386 330.856 28.4866 330.74 28.0386 330.74C27.5666 330.74 27.1906 330.876 26.9106 331.148C26.6306 331.412 26.4906 331.792 26.4906 332.288V334.1C26.4906 334.596 26.6306 334.98 26.9106 335.252C27.1906 335.524 27.5666 335.66 28.0386 335.66C28.4866 335.66 28.8386 335.544 29.0946 335.312C29.3586 335.08 29.5026 334.756 29.5266 334.34H30.6066C30.5826 335.044 30.3386 335.6 29.8746 336.008C29.4106 336.416 28.7986 336.62 28.0386 336.62ZM32.8939 336.5V329.9H33.9739V331.16H34.2019L33.9739 331.412C33.9739 330.892 34.1299 330.492 34.4419 330.212C34.7539 329.924 35.1859 329.78 35.7379 329.78C36.4259 329.78 36.9739 330 37.3819 330.44C37.7899 330.872 37.9939 331.46 37.9939 332.204V332.66H36.9139V332.3C36.9139 331.796 36.7859 331.408 36.5299 331.136C36.2739 330.856 35.9019 330.716 35.4139 330.716C34.9499 330.716 34.5939 330.852 34.3459 331.124C34.0979 331.388 33.9739 331.78 33.9739 332.3V336.5H32.8939ZM42.3813 336.596C41.8533 336.596 41.3933 336.496 41.0013 336.296C40.6173 336.088 40.3213 335.796 40.1133 335.42C39.9053 335.044 39.8013 334.596 39.8013 334.076V332.324C39.8013 331.804 39.9053 331.356 40.1133 330.98C40.3213 330.604 40.6173 330.316 41.0013 330.116C41.3933 329.908 41.8533 329.804 42.3813 329.804C42.9173 329.804 43.3773 329.908 43.7613 330.116C44.1453 330.316 44.4413 330.604 44.6493 330.98C44.8573 331.348 44.9613 331.792 44.9613 332.312V334.076C44.9613 334.596 44.8573 335.044 44.6493 335.42C44.4413 335.796 44.1453 336.088 43.7613 336.296C43.3773 336.496 42.9173 336.596 42.3813 336.596ZM42.3813 335.636C42.8533 335.636 43.2213 335.504 43.4853 335.24C43.7493 334.976 43.8813 334.588 43.8813 334.076V332.324C43.8813 331.812 43.7493 331.424 43.4853 331.16C43.2213 330.896 42.8533 330.764 42.3813 330.764C41.9173 330.764 41.5493 330.896 41.2773 331.16C41.0133 331.424 40.8813 331.812 40.8813 332.324V334.076C40.8813 334.588 41.0133 334.976 41.2773 335.24C41.5493 335.504 41.9173 335.636 42.3813 335.636ZM49.3726 336.596C48.9246 336.596 48.5246 336.528 48.1726 336.392C47.8206 336.248 47.5446 336.044 47.3446 335.78C47.1526 335.516 47.0566 335.204 47.0566 334.844H48.1606C48.1606 335.092 48.2766 335.288 48.5086 335.432C48.7486 335.568 49.0446 335.636 49.3966 335.636H49.9006C50.3246 335.636 50.6406 335.552 50.8486 335.384C51.0566 335.208 51.1606 334.976 51.1606 334.688C51.1606 334.408 51.0606 334.188 50.8606 334.028C50.6686 333.86 50.3886 333.748 50.0206 333.692L49.1326 333.548C48.4766 333.436 47.9926 333.228 47.6806 332.924C47.3686 332.62 47.2126 332.2 47.2126 331.664C47.2126 331.064 47.4046 330.604 47.7886 330.284C48.1806 329.964 48.7406 329.804 49.4686 329.804H49.9246C50.5966 329.804 51.1326 329.956 51.5326 330.26C51.9406 330.556 52.1446 330.952 52.1446 331.448H51.0406C51.0406 331.24 50.9366 331.076 50.7286 330.956C50.5286 330.828 50.2526 330.764 49.9006 330.764H49.4446C49.0686 330.764 48.7766 330.844 48.5686 331.004C48.3686 331.156 48.2686 331.376 48.2686 331.664C48.2686 332.144 48.6086 332.44 49.2886 332.552L50.1766 332.696C50.8886 332.808 51.4046 333.016 51.7246 333.32C52.0526 333.624 52.2166 334.064 52.2166 334.64C52.2166 335.248 52.0206 335.728 51.6286 336.08C51.2446 336.424 50.6606 336.596 49.8766 336.596H49.3726ZM56.7719 336.62C56.2519 336.62 55.7959 336.516 55.4039 336.308C55.0199 336.1 54.7199 335.808 54.5039 335.432C54.2959 335.048 54.1919 334.604 54.1919 334.1V332.3C54.1919 331.788 54.2959 331.344 54.5039 330.968C54.7199 330.592 55.0199 330.3 55.4039 330.092C55.7959 329.884 56.2519 329.78 56.7719 329.78C57.2919 329.78 57.7439 329.884 58.1279 330.092C58.5199 330.3 58.8199 330.592 59.0279 330.968C59.2439 331.344 59.3519 331.788 59.3519 332.3V333.464H55.2479V334.1C55.2479 334.62 55.3799 335.02 55.6439 335.3C55.9079 335.572 56.2839 335.708 56.7719 335.708C57.1879 335.708 57.5239 335.636 57.7799 335.492C58.0359 335.34 58.1919 335.116 58.2479 334.82H59.3279C59.2559 335.372 58.9839 335.812 58.5119 336.14C58.0479 336.46 57.4679 336.62 56.7719 336.62ZM58.2959 332.744V332.3C58.2959 331.78 58.1639 331.38 57.8999 331.1C57.6439 330.82 57.2679 330.68 56.7719 330.68C56.2839 330.68 55.9079 330.82 55.6439 331.1C55.3799 331.38 55.2479 331.78 55.2479 332.3V332.648H58.3799L58.2959 332.744ZM61.6752 336.5V329.9H62.7552V331.16H62.9832L62.7552 331.412C62.7552 330.892 62.9112 330.492 63.2232 330.212C63.5352 329.924 63.9672 329.78 64.5192 329.78C65.2072 329.78 65.7552 330 66.1632 330.44C66.5712 330.872 66.7752 331.46 66.7752 332.204V332.66H65.6952V332.3C65.6952 331.796 65.5672 331.408 65.3112 331.136C65.0552 330.856 64.6832 330.716 64.1952 330.716C63.7312 330.716 63.3752 330.852 63.1272 331.124C62.8792 331.388 62.7552 331.78 62.7552 332.3V336.5H61.6752ZM70.4545 336.5L68.1625 329.9H69.2785L70.8145 334.34C70.9025 334.604 70.9785 334.86 71.0425 335.108C71.1065 335.348 71.1545 335.536 71.1865 335.672C71.2265 335.536 71.2745 335.348 71.3305 335.108C71.3865 334.86 71.4585 334.604 71.5465 334.34L73.0345 329.9H74.1625L71.8705 336.5H70.4545ZM75.7778 336.5V335.516H78.1178V330.884H76.0178V329.9H79.1978V335.516H81.4178V336.5H75.7778ZM78.5378 328.712C78.2738 328.712 78.0658 328.644 77.9138 328.508C77.7618 328.372 77.6858 328.188 77.6858 327.956C77.6858 327.716 77.7618 327.528 77.9138 327.392C78.0658 327.248 78.2738 327.176 78.5378 327.176C78.8018 327.176 79.0098 327.248 79.1618 327.392C79.3138 327.528 79.3898 327.716 79.3898 327.956C79.3898 328.188 79.3138 328.372 79.1618 328.508C79.0098 328.644 78.8018 328.712 78.5378 328.712ZM85.6011 336.62C85.0731 336.62 84.6091 336.52 84.2091 336.32C83.8171 336.12 83.5131 335.832 83.2971 335.456C83.0811 335.072 82.9731 334.62 82.9731 334.1V332.3C82.9731 331.772 83.0811 331.32 83.2971 330.944C83.5131 330.568 83.8171 330.28 84.2091 330.08C84.6091 329.88 85.0731 329.78 85.6011 329.78C86.3611 329.78 86.9731 329.984 87.4371 330.392C87.9011 330.8 88.1451 331.356 88.1691 332.06H87.0891C87.0651 331.636 86.9211 331.312 86.6571 331.088C86.4011 330.856 86.0491 330.74 85.6011 330.74C85.1291 330.74 84.7531 330.876 84.4731 331.148C84.1931 331.412 84.0531 331.792 84.0531 332.288V334.1C84.0531 334.596 84.1931 334.98 84.4731 335.252C84.7531 335.524 85.1291 335.66 85.6011 335.66C86.0491 335.66 86.4011 335.544 86.6571 335.312C86.9211 335.08 87.0651 334.756 87.0891 334.34H88.1691C88.1451 335.044 87.9011 335.6 87.4371 336.008C86.9731 336.416 86.3611 336.62 85.6011 336.62ZM92.7484 336.62C92.2284 336.62 91.7724 336.516 91.3804 336.308C90.9964 336.1 90.6964 335.808 90.4804 335.432C90.2724 335.048 90.1684 334.604 90.1684 334.1V332.3C90.1684 331.788 90.2724 331.344 90.4804 330.968C90.6964 330.592 90.9964 330.3 91.3804 330.092C91.7724 329.884 92.2284 329.78 92.7484 329.78C93.2684 329.78 93.7204 329.884 94.1044 330.092C94.4964 330.3 94.7964 330.592 95.0044 330.968C95.2204 331.344 95.3284 331.788 95.3284 332.3V333.464H91.2244V334.1C91.2244 334.62 91.3564 335.02 91.6204 335.3C91.8844 335.572 92.2604 335.708 92.7484 335.708C93.1644 335.708 93.5004 335.636 93.7564 335.492C94.0124 335.34 94.1684 335.116 94.2244 334.82H95.3044C95.2324 335.372 94.9604 335.812 94.4884 336.14C94.0244 336.46 93.4444 336.62 92.7484 336.62ZM94.2724 332.744V332.3C94.2724 331.78 94.1404 331.38 93.8764 331.1C93.6204 330.82 93.2444 330.68 92.7484 330.68C92.2604 330.68 91.8844 330.82 91.6204 331.1C91.3564 331.38 91.2244 331.78 91.2244 332.3V332.648H94.3564L94.2724 332.744ZM99.7398 336.596C99.2918 336.596 98.8918 336.528 98.5398 336.392C98.1878 336.248 97.9118 336.044 97.7118 335.78C97.5198 335.516 97.4238 335.204 97.4238 334.844H98.5278C98.5278 335.092 98.6438 335.288 98.8758 335.432C99.1158 335.568 99.4118 335.636 99.7638 335.636H100.268C100.692 335.636 101.008 335.552 101.216 335.384C101.424 335.208 101.528 334.976 101.528 334.688C101.528 334.408 101.428 334.188 101.228 334.028C101.036 333.86 100.756 333.748 100.388 333.692L99.4998 333.548C98.8438 333.436 98.3598 333.228 98.0478 332.924C97.7358 332.62 97.5798 332.2 97.5798 331.664C97.5798 331.064 97.7718 330.604 98.1558 330.284C98.5478 329.964 99.1078 329.804 99.8358 329.804H100.292C100.964 329.804 101.5 329.956 101.9 330.26C102.308 330.556 102.512 330.952 102.512 331.448H101.408C101.408 331.24 101.304 331.076 101.096 330.956C100.896 330.828 100.62 330.764 100.268 330.764H99.8118C99.4358 330.764 99.1438 330.844 98.9358 331.004C98.7358 331.156 98.6358 331.376 98.6358 331.664C98.6358 332.144 98.9758 332.44 99.6558 332.552L100.544 332.696C101.256 332.808 101.772 333.016 102.092 333.32C102.42 333.624 102.584 334.064 102.584 334.64C102.584 335.248 102.388 335.728 101.996 336.08C101.612 336.424 101.028 336.596 100.244 336.596H99.7398Z" fill="#DDDDDD"/>
<rect y="200" width="100" height="25" rx="12.5" fill="#F4322C"/>
<path d="M13.06 216.5V208.724H10.66V207.74H16.54V208.724H14.14V216.5H13.06ZM20.2193 216.62C19.5233 216.62 18.9753 216.444 18.5753 216.092C18.1753 215.732 17.9753 215.248 17.9753 214.64C17.9753 214.024 18.1753 213.54 18.5753 213.188C18.9753 212.836 19.5153 212.66 20.1953 212.66H22.2353V212C22.2353 211.6 22.1113 211.288 21.8633 211.064C21.6233 210.84 21.2873 210.728 20.8553 210.728C20.4713 210.728 20.1473 210.812 19.8833 210.98C19.6193 211.148 19.4553 211.368 19.3913 211.64H18.3113C18.3513 211.272 18.4833 210.948 18.7073 210.668C18.9393 210.388 19.2393 210.172 19.6073 210.02C19.9833 209.86 20.3993 209.78 20.8553 209.78C21.6153 209.78 22.2153 209.976 22.6553 210.368C23.0953 210.76 23.3153 211.292 23.3153 211.964V216.5H22.2593V215.24H22.0793L22.2593 215.06C22.2593 215.54 22.0713 215.92 21.6953 216.2C21.3273 216.48 20.8353 216.62 20.2193 216.62ZM20.4833 215.768C20.9953 215.768 21.4153 215.64 21.7433 215.384C22.0713 215.128 22.2353 214.8 22.2353 214.4V213.464H20.2193C19.8593 213.464 19.5753 213.564 19.3673 213.764C19.1593 213.964 19.0553 214.236 19.0553 214.58C19.0553 214.948 19.1793 215.24 19.4273 215.456C19.6833 215.664 20.0353 215.768 20.4833 215.768ZM25.4106 216.5V215.516H27.7506V210.884H25.6506V209.9H28.8306V215.516H31.0506V216.5H25.4106ZM28.1706 208.712C27.9066 208.712 27.6986 208.644 27.5466 208.508C27.3946 208.372 27.3186 208.188 27.3186 207.956C27.3186 207.716 27.3946 207.528 27.5466 207.392C27.6986 207.248 27.9066 207.176 28.1706 207.176C28.4346 207.176 28.6426 207.248 28.7946 207.392C28.9466 207.528 29.0226 207.716 29.0226 207.956C29.0226 208.188 28.9466 208.372 28.7946 208.508C28.6426 208.644 28.4346 208.712 28.1706 208.712ZM36.1459 216.5C35.7619 216.5 35.4259 216.424 35.1379 216.272C34.8499 216.12 34.6259 215.904 34.4659 215.624C34.3059 215.344 34.2259 215.016 34.2259 214.64V208.724H31.9459V207.74H35.3059V214.64C35.3059 214.912 35.3819 215.128 35.5339 215.288C35.6859 215.44 35.8899 215.516 36.1459 215.516H38.1859V216.5H36.1459ZM40.2573 216.5L39.2013 209.9H40.1373L40.7973 214.58C40.8213 214.756 40.8453 214.948 40.8693 215.156C40.8933 215.356 40.9093 215.524 40.9173 215.66H40.9653C40.9813 215.524 41.0013 215.356 41.0253 215.156C41.0493 214.948 41.0773 214.756 41.1093 214.58L41.8413 209.9H42.9213L43.6533 214.58C43.6853 214.756 43.7133 214.948 43.7373 215.156C43.7693 215.356 43.7893 215.524 43.7973 215.66H43.8453C43.8613 215.524 43.8813 215.356 43.9053 215.156C43.9373 214.948 43.9653 214.756 43.9893 214.58L44.6733 209.9H45.5612L44.4573 216.5H43.2693L42.5613 211.94C42.5293 211.716 42.4973 211.492 42.4653 211.268C42.4333 211.044 42.4093 210.868 42.3933 210.74H42.3453C42.3373 210.868 42.3173 211.044 42.2853 211.268C42.2613 211.492 42.2293 211.716 42.1893 211.94L41.4453 216.5H40.2573ZM46.9966 216.5V215.516H49.3366V210.884H47.2366V209.9H50.4166V215.516H52.6366V216.5H46.9966ZM49.7566 208.712C49.4926 208.712 49.2846 208.644 49.1326 208.508C48.9806 208.372 48.9046 208.188 48.9046 207.956C48.9046 207.716 48.9806 207.528 49.1326 207.392C49.2846 207.248 49.4926 207.176 49.7566 207.176C50.0206 207.176 50.2286 207.248 50.3806 207.392C50.5326 207.528 50.6086 207.716 50.6086 207.956C50.6086 208.188 50.5326 208.372 50.3806 208.508C50.2286 208.644 50.0206 208.712 49.7566 208.712ZM54.2759 216.5V209.9H55.3559V211.16H55.5839L55.3559 211.412C55.3559 210.892 55.5119 210.492 55.8239 210.212C56.1359 209.924 56.5679 209.78 57.1199 209.78C57.7839 209.78 58.3119 209.984 58.7039 210.392C59.0959 210.8 59.2919 211.356 59.2919 212.06V216.5H58.2119V212.18C58.2119 211.708 58.0839 211.348 57.8279 211.1C57.5799 210.844 57.2399 210.716 56.8079 210.716C56.3599 210.716 56.0039 210.852 55.7399 211.124C55.4839 211.396 55.3559 211.788 55.3559 212.3V216.5H54.2759ZM63.5832 216.62C62.9272 216.62 62.3952 216.4 61.9872 215.96C61.5872 215.52 61.3872 214.924 61.3872 214.172V212.24C61.3872 211.48 61.5872 210.88 61.9872 210.44C62.3872 210 62.9192 209.78 63.5832 209.78C64.1272 209.78 64.5632 209.928 64.8912 210.224C65.2192 210.52 65.3832 210.916 65.3832 211.412L65.1672 211.16H65.4072L65.3832 209.66V207.74H66.4632V216.5H65.3832V215.24H65.1672L65.3832 214.988C65.3832 215.492 65.2192 215.892 64.8912 216.188C64.5632 216.476 64.1272 216.62 63.5832 216.62ZM63.9432 215.684C64.3912 215.684 64.7432 215.544 64.9992 215.264C65.2552 214.984 65.3832 214.596 65.3832 214.1V212.3C65.3832 211.804 65.2552 211.416 64.9992 211.136C64.7432 210.856 64.3912 210.716 63.9432 210.716C63.4872 210.716 63.1272 210.852 62.8632 211.124C62.5992 211.396 62.4672 211.788 62.4672 212.3V214.1C62.4672 214.612 62.5992 215.004 62.8632 215.276C63.1272 215.548 63.4872 215.684 63.9432 215.684ZM71.2105 216.62C70.6825 216.62 70.2185 216.52 69.8185 216.32C69.4265 216.12 69.1225 215.832 68.9065 215.456C68.6905 215.072 68.5825 214.62 68.5825 214.1V212.3C68.5825 211.772 68.6905 211.32 68.9065 210.944C69.1225 210.568 69.4265 210.28 69.8185 210.08C70.2185 209.88 70.6825 209.78 71.2105 209.78C71.9705 209.78 72.5825 209.984 73.0465 210.392C73.5105 210.8 73.7545 211.356 73.7785 212.06H72.6985C72.6745 211.636 72.5305 211.312 72.2665 211.088C72.0105 210.856 71.6585 210.74 71.2105 210.74C70.7385 210.74 70.3625 210.876 70.0825 211.148C69.8025 211.412 69.6625 211.792 69.6625 212.288V214.1C69.6625 214.596 69.8025 214.98 70.0825 215.252C70.3625 215.524 70.7385 215.66 71.2105 215.66C71.6585 215.66 72.0105 215.544 72.2665 215.312C72.5305 215.08 72.6745 214.756 72.6985 214.34H73.7785C73.7545 215.044 73.5105 215.6 73.0465 216.008C72.5825 216.416 71.9705 216.62 71.2105 216.62ZM78.1538 216.596C77.7058 216.596 77.3058 216.528 76.9538 216.392C76.6018 216.248 76.3258 216.044 76.1258 215.78C75.9338 215.516 75.8378 215.204 75.8378 214.844H76.9418C76.9418 215.092 77.0578 215.288 77.2898 215.432C77.5298 215.568 77.8258 215.636 78.1778 215.636H78.6818C79.1058 215.636 79.4218 215.552 79.6298 215.384C79.8378 215.208 79.9418 214.976 79.9418 214.688C79.9418 214.408 79.8418 214.188 79.6418 214.028C79.4498 213.86 79.1698 213.748 78.8018 213.692L77.9138 213.548C77.2578 213.436 76.7738 213.228 76.4618 212.924C76.1498 212.62 75.9938 212.2 75.9938 211.664C75.9938 211.064 76.1858 210.604 76.5698 210.284C76.9618 209.964 77.5218 209.804 78.2498 209.804H78.7058C79.3778 209.804 79.9138 209.956 80.3138 210.26C80.7218 210.556 80.9258 210.952 80.9258 211.448H79.8218C79.8218 211.24 79.7178 211.076 79.5098 210.956C79.3098 210.828 79.0338 210.764 78.6818 210.764H78.2258C77.8498 210.764 77.5578 210.844 77.3498 211.004C77.1498 211.156 77.0498 211.376 77.0498 211.664C77.0498 212.144 77.3898 212.44 78.0698 212.552L78.9578 212.696C79.6698 212.808 80.1858 213.016 80.5058 213.32C80.8338 213.624 80.9978 214.064 80.9978 214.64C80.9978 215.248 80.8018 215.728 80.4098 216.08C80.0258 216.424 79.4418 216.596 78.6578 216.596H78.1538ZM85.3491 216.596C84.9011 216.596 84.5011 216.528 84.1491 216.392C83.7971 216.248 83.5211 216.044 83.3211 215.78C83.1291 215.516 83.0331 215.204 83.0331 214.844H84.1371C84.1371 215.092 84.2531 215.288 84.4851 215.432C84.7251 215.568 85.0211 215.636 85.3731 215.636H85.8771C86.3011 215.636 86.6171 215.552 86.8251 215.384C87.0331 215.208 87.1371 214.976 87.1371 214.688C87.1371 214.408 87.0371 214.188 86.8371 214.028C86.6451 213.86 86.3651 213.748 85.9971 213.692L85.1091 213.548C84.4531 213.436 83.9691 213.228 83.6571 212.924C83.3451 212.62 83.1891 212.2 83.1891 211.664C83.1891 211.064 83.3811 210.604 83.7651 210.284C84.1571 209.964 84.7171 209.804 85.4451 209.804H85.9011C86.5731 209.804 87.1091 209.956 87.5091 210.26C87.9171 210.556 88.1211 210.952 88.1211 211.448H87.0171C87.0171 211.24 86.9131 211.076 86.7051 210.956C86.5051 210.828 86.2291 210.764 85.8771 210.764H85.4211C85.0451 210.764 84.7531 210.844 84.5451 211.004C84.3451 211.156 84.2451 211.376 84.2451 211.664C84.2451 212.144 84.5851 212.44 85.2651 212.552L86.1531 212.696C86.8651 212.808 87.3811 213.016 87.7011 213.32C88.0291 213.624 88.1931 214.064 88.1931 214.64C88.1931 215.248 87.9971 215.728 87.6051 216.08C87.2211 216.424 86.6371 216.596 85.8531 216.596H85.3491Z" fill="#DDDDDD"/>
<rect y="280" width="85" height="25" rx="12.5" fill="#F4322C"/>
<path d="M11.116 296.5V287.74H13.6C14.136 287.74 14.592 287.832 14.968 288.016C15.352 288.192 15.644 288.452 15.844 288.796C16.052 289.132 16.156 289.536 16.156 290.008C16.156 290.616 15.968 291.096 15.592 291.448C15.224 291.8 14.72 291.972 14.08 291.964V291.784C14.768 291.768 15.32 291.968 15.736 292.384C16.152 292.8 16.36 293.36 16.36 294.064C16.36 294.56 16.256 294.992 16.048 295.36C15.84 295.728 15.544 296.012 15.16 296.212C14.776 296.404 14.316 296.5 13.78 296.5H11.116ZM12.172 295.528H13.66C14.164 295.528 14.56 295.396 14.848 295.132C15.144 294.86 15.292 294.492 15.292 294.028C15.292 293.548 15.144 293.16 14.848 292.864C14.56 292.56 14.164 292.408 13.66 292.408H12.172V295.528ZM12.172 291.472H13.588C14.052 291.472 14.416 291.348 14.68 291.1C14.952 290.852 15.088 290.516 15.088 290.092C15.088 289.668 14.956 289.332 14.692 289.084C14.428 288.836 14.064 288.712 13.6 288.712H12.172V291.472ZM20.7953 296.596C20.2673 296.596 19.8073 296.496 19.4153 296.296C19.0313 296.088 18.7353 295.796 18.5273 295.42C18.3193 295.044 18.2153 294.596 18.2153 294.076V292.324C18.2153 291.804 18.3193 291.356 18.5273 290.98C18.7353 290.604 19.0313 290.316 19.4153 290.116C19.8073 289.908 20.2673 289.804 20.7953 289.804C21.3313 289.804 21.7913 289.908 22.1753 290.116C22.5593 290.316 22.8553 290.604 23.0633 290.98C23.2713 291.348 23.3753 291.792 23.3753 292.312V294.076C23.3753 294.596 23.2713 295.044 23.0633 295.42C22.8553 295.796 22.5593 296.088 22.1753 296.296C21.7913 296.496 21.3313 296.596 20.7953 296.596ZM20.7953 295.636C21.2673 295.636 21.6353 295.504 21.8993 295.24C22.1633 294.976 22.2953 294.588 22.2953 294.076V292.324C22.2953 291.812 22.1633 291.424 21.8993 291.16C21.6353 290.896 21.2673 290.764 20.7953 290.764C20.3313 290.764 19.9633 290.896 19.6913 291.16C19.4273 291.424 19.2953 291.812 19.2953 292.324V294.076C19.2953 294.588 19.4273 294.976 19.6913 295.24C19.9633 295.504 20.3313 295.636 20.7953 295.636ZM27.9906 296.596C27.4626 296.596 27.0026 296.496 26.6106 296.296C26.2266 296.088 25.9306 295.796 25.7226 295.42C25.5146 295.044 25.4106 294.596 25.4106 294.076V292.324C25.4106 291.804 25.5146 291.356 25.7226 290.98C25.9306 290.604 26.2266 290.316 26.6106 290.116C27.0026 289.908 27.4626 289.804 27.9906 289.804C28.5266 289.804 28.9866 289.908 29.3706 290.116C29.7546 290.316 30.0506 290.604 30.2586 290.98C30.4666 291.348 30.5706 291.792 30.5706 292.312V294.076C30.5706 294.596 30.4666 295.044 30.2586 295.42C30.0506 295.796 29.7546 296.088 29.3706 296.296C28.9866 296.496 28.5266 296.596 27.9906 296.596ZM27.9906 295.636C28.4626 295.636 28.8306 295.504 29.0946 295.24C29.3586 294.976 29.4906 294.588 29.4906 294.076V292.324C29.4906 291.812 29.3586 291.424 29.0946 291.16C28.8306 290.896 28.4626 290.764 27.9906 290.764C27.5266 290.764 27.1586 290.896 26.8866 291.16C26.6226 291.424 26.4906 291.812 26.4906 292.324V294.076C26.4906 294.588 26.6226 294.976 26.8866 295.24C27.1586 295.504 27.5266 295.636 27.9906 295.636ZM35.9059 296.5C35.3619 296.5 34.9259 296.344 34.5979 296.032C34.2699 295.712 34.1059 295.288 34.1059 294.76V290.884H32.2459V289.9H34.1059V288.04H35.1859V289.9H37.8259V290.884H35.1859V294.76C35.1859 294.984 35.2499 295.168 35.3779 295.312C35.5139 295.448 35.6899 295.516 35.9059 295.516H37.7059V296.5H35.9059ZM42.1773 296.596C41.7293 296.596 41.3293 296.528 40.9773 296.392C40.6253 296.248 40.3493 296.044 40.1493 295.78C39.9573 295.516 39.8613 295.204 39.8613 294.844H40.9653C40.9653 295.092 41.0813 295.288 41.3133 295.432C41.5533 295.568 41.8493 295.636 42.2013 295.636H42.7053C43.1293 295.636 43.4453 295.552 43.6533 295.384C43.8613 295.208 43.9653 294.976 43.9653 294.688C43.9653 294.408 43.8653 294.188 43.6653 294.028C43.4733 293.86 43.1933 293.748 42.8253 293.692L41.9373 293.548C41.2813 293.436 40.7973 293.228 40.4853 292.924C40.1733 292.62 40.0173 292.2 40.0173 291.664C40.0173 291.064 40.2093 290.604 40.5933 290.284C40.9853 289.964 41.5453 289.804 42.2733 289.804H42.7293C43.4013 289.804 43.9373 289.956 44.3373 290.26C44.7453 290.556 44.9492 290.952 44.9492 291.448H43.8453C43.8453 291.24 43.7413 291.076 43.5333 290.956C43.3333 290.828 43.0573 290.764 42.7053 290.764H42.2493C41.8733 290.764 41.5813 290.844 41.3733 291.004C41.1733 291.156 41.0733 291.376 41.0733 291.664C41.0733 292.144 41.4133 292.44 42.0933 292.552L42.9813 292.696C43.6933 292.808 44.2093 293.016 44.5293 293.32C44.8573 293.624 45.0213 294.064 45.0213 294.64C45.0213 295.248 44.8253 295.728 44.4333 296.08C44.0493 296.424 43.4653 296.596 42.6813 296.596H42.1773ZM50.2966 296.5C49.7526 296.5 49.3166 296.344 48.9886 296.032C48.6606 295.712 48.4966 295.288 48.4966 294.76V290.884H46.6366V289.9H48.4966V288.04H49.5766V289.9H52.2166V290.884H49.5766V294.76C49.5766 294.984 49.6406 295.168 49.7686 295.312C49.9046 295.448 50.0806 295.516 50.2966 295.516H52.0966V296.5H50.2966ZM54.4799 296.5V289.9H55.5599V291.16H55.7879L55.5599 291.412C55.5599 290.892 55.7159 290.492 56.0279 290.212C56.3399 289.924 56.7719 289.78 57.3239 289.78C58.0119 289.78 58.5599 290 58.9679 290.44C59.3759 290.872 59.5799 291.46 59.5799 292.204V292.66H58.4999V292.3C58.4999 291.796 58.3719 291.408 58.1159 291.136C57.8599 290.856 57.4879 290.716 56.9999 290.716C56.5359 290.716 56.1799 290.852 55.9319 291.124C55.6839 291.388 55.5599 291.78 55.5599 292.3V296.5H54.4799ZM63.3912 296.62C62.6952 296.62 62.1472 296.444 61.7472 296.092C61.3472 295.732 61.1472 295.248 61.1472 294.64C61.1472 294.024 61.3472 293.54 61.7472 293.188C62.1472 292.836 62.6872 292.66 63.3672 292.66H65.4072V292C65.4072 291.6 65.2832 291.288 65.0352 291.064C64.7952 290.84 64.4592 290.728 64.0272 290.728C63.6432 290.728 63.3192 290.812 63.0552 290.98C62.7912 291.148 62.6272 291.368 62.5632 291.64H61.4832C61.5232 291.272 61.6552 290.948 61.8792 290.668C62.1112 290.388 62.4112 290.172 62.7792 290.02C63.1552 289.86 63.5712 289.78 64.0272 289.78C64.7872 289.78 65.3872 289.976 65.8272 290.368C66.2672 290.76 66.4872 291.292 66.4872 291.964V296.5H65.4312V295.24H65.2512L65.4312 295.06C65.4312 295.54 65.2432 295.92 64.8672 296.2C64.4992 296.48 64.0072 296.62 63.3912 296.62ZM63.6552 295.768C64.1672 295.768 64.5872 295.64 64.9152 295.384C65.2432 295.128 65.4072 294.8 65.4072 294.4V293.464H63.3912C63.0312 293.464 62.7472 293.564 62.5392 293.764C62.3312 293.964 62.2272 294.236 62.2272 294.58C62.2272 294.948 62.3512 295.24 62.5992 295.456C62.8552 295.664 63.2072 295.768 63.6552 295.768ZM68.6785 298.66V289.9H69.7585V291.16H69.9745L69.7585 291.412C69.7585 290.908 69.9225 290.512 70.2505 290.224C70.5865 289.928 71.0265 289.78 71.5705 289.78C72.2345 289.78 72.7625 290 73.1545 290.44C73.5545 290.872 73.7545 291.468 73.7545 292.228V294.16C73.7545 294.664 73.6625 295.1 73.4785 295.468C73.3025 295.836 73.0505 296.12 72.7225 296.32C72.4025 296.52 72.0185 296.62 71.5705 296.62C71.0345 296.62 70.5985 296.472 70.2625 296.176C69.9265 295.88 69.7585 295.484 69.7585 294.988L69.9745 295.24H69.7345L69.7585 296.74V298.66H68.6785ZM71.2105 295.684C71.6665 295.684 72.0225 295.548 72.2785 295.276C72.5425 295.004 72.6745 294.612 72.6745 294.1V292.3C72.6745 291.788 72.5425 291.396 72.2785 291.124C72.0225 290.852 71.6665 290.716 71.2105 290.716C70.7705 290.716 70.4185 290.856 70.1545 291.136C69.8905 291.416 69.7585 291.804 69.7585 292.3V294.1C69.7585 294.596 69.8905 294.984 70.1545 295.264C70.4185 295.544 70.7705 295.684 71.2105 295.684Z" fill="#DDDDDD"/>
<rect y="240" width="107" height="25" rx="12.5" fill="#F4322C"/>
<path d="M12.856 256.5L10.6 247.74H11.704L13.204 253.704C13.308 254.12 13.392 254.504 13.456 254.856C13.528 255.208 13.58 255.476 13.612 255.66C13.644 255.476 13.696 255.208 13.768 254.856C13.848 254.496 13.94 254.108 14.044 253.692L15.484 247.74H16.6L14.332 256.5H12.856ZM18.2153 256.5V255.516H20.5553V250.884H18.4553V249.9H21.6353V255.516H23.8553V256.5H18.2153ZM20.9753 248.712C20.7113 248.712 20.5033 248.644 20.3513 248.508C20.1993 248.372 20.1233 248.188 20.1233 247.956C20.1233 247.716 20.1993 247.528 20.3513 247.392C20.5033 247.248 20.7113 247.176 20.9753 247.176C21.2393 247.176 21.4473 247.248 21.5993 247.392C21.7513 247.528 21.8273 247.716 21.8273 247.956C21.8273 248.188 21.7513 248.372 21.5993 248.508C21.4473 248.644 21.2393 248.712 20.9753 248.712ZM28.7106 256.5C28.1666 256.5 27.7306 256.344 27.4026 256.032C27.0746 255.712 26.9106 255.288 26.9106 254.76V250.884H25.0506V249.9H26.9106V248.04H27.9906V249.9H30.6306V250.884H27.9906V254.76C27.9906 254.984 28.0546 255.168 28.1826 255.312C28.3186 255.448 28.4946 255.516 28.7106 255.516H30.5106V256.5H28.7106ZM35.1859 256.62C34.6659 256.62 34.2099 256.516 33.8179 256.308C33.4339 256.1 33.1339 255.808 32.9179 255.432C32.7099 255.048 32.6059 254.604 32.6059 254.1V252.3C32.6059 251.788 32.7099 251.344 32.9179 250.968C33.1339 250.592 33.4339 250.3 33.8179 250.092C34.2099 249.884 34.6659 249.78 35.1859 249.78C35.7059 249.78 36.1579 249.884 36.5419 250.092C36.9339 250.3 37.2339 250.592 37.4419 250.968C37.6579 251.344 37.7659 251.788 37.7659 252.3V253.464H33.6619V254.1C33.6619 254.62 33.7939 255.02 34.0579 255.3C34.3219 255.572 34.6979 255.708 35.1859 255.708C35.6019 255.708 35.9379 255.636 36.1939 255.492C36.4499 255.34 36.6059 255.116 36.6619 254.82H37.7419C37.6699 255.372 37.3979 255.812 36.9259 256.14C36.4619 256.46 35.8819 256.62 35.1859 256.62ZM36.7099 252.744V252.3C36.7099 251.78 36.5779 251.38 36.3139 251.1C36.0579 250.82 35.6819 250.68 35.1859 250.68C34.6979 250.68 34.3219 250.82 34.0579 251.1C33.7939 251.38 33.6619 251.78 33.6619 252.3V252.648H36.7939L36.7099 252.744ZM39.6813 257.82L43.9413 246.54H45.0813L40.8213 257.82H39.6813ZM47.2846 256.5L46.2766 247.74H47.3086L47.9686 254.22C47.9846 254.396 48.0006 254.58 48.0166 254.772C48.0326 254.956 48.0446 255.132 48.0526 255.3C48.0686 255.468 48.0766 255.608 48.0766 255.72C48.0926 255.608 48.1046 255.468 48.1126 255.3C48.1286 255.132 48.1446 254.956 48.1606 254.772C48.1846 254.58 48.2086 254.396 48.2326 254.22L49.0486 247.74H50.1646L50.9086 254.22C50.9326 254.396 50.9526 254.58 50.9686 254.772C50.9926 254.956 51.0126 255.132 51.0286 255.3C51.0526 255.468 51.0686 255.608 51.0766 255.72C51.0846 255.608 51.0926 255.468 51.1006 255.3C51.1166 255.132 51.1326 254.956 51.1486 254.772C51.1726 254.58 51.1926 254.396 51.2086 254.22L51.8926 247.74H52.8766L51.8446 256.5H50.4886L49.7446 249.9C49.7286 249.716 49.7086 249.536 49.6846 249.36C49.6686 249.184 49.6526 249.02 49.6366 248.868C49.6206 248.716 49.6086 248.592 49.6006 248.496C49.5926 248.592 49.5766 248.716 49.5526 248.868C49.5366 249.02 49.5206 249.184 49.5046 249.36C49.4886 249.536 49.4686 249.716 49.4446 249.9L48.6406 256.5H47.2846ZM56.7719 256.62C56.2519 256.62 55.7959 256.516 55.4039 256.308C55.0199 256.1 54.7199 255.808 54.5039 255.432C54.2959 255.048 54.1919 254.604 54.1919 254.1V252.3C54.1919 251.788 54.2959 251.344 54.5039 250.968C54.7199 250.592 55.0199 250.3 55.4039 250.092C55.7959 249.884 56.2519 249.78 56.7719 249.78C57.2919 249.78 57.7439 249.884 58.1279 250.092C58.5199 250.3 58.8199 250.592 59.0279 250.968C59.2439 251.344 59.3519 251.788 59.3519 252.3V253.464H55.2479V254.1C55.2479 254.62 55.3799 255.02 55.6439 255.3C55.9079 255.572 56.2839 255.708 56.7719 255.708C57.1879 255.708 57.5239 255.636 57.7799 255.492C58.0359 255.34 58.1919 255.116 58.2479 254.82H59.3279C59.2559 255.372 58.9839 255.812 58.5119 256.14C58.0479 256.46 57.4679 256.62 56.7719 256.62ZM58.2959 252.744V252.3C58.2959 251.78 58.1639 251.38 57.8999 251.1C57.6439 250.82 57.2679 250.68 56.7719 250.68C56.2839 250.68 55.9079 250.82 55.6439 251.1C55.3799 251.38 55.2479 251.78 55.2479 252.3V252.648H58.3799L58.2959 252.744ZM64.3512 256.62C63.8072 256.62 63.3712 256.476 63.0432 256.188C62.7152 255.892 62.5512 255.492 62.5512 254.988L62.7672 255.24H62.5512V256.5H61.4712V247.74H62.5512V249.66L62.5272 251.16H62.7672L62.5512 251.412C62.5512 250.916 62.7152 250.52 63.0432 250.224C63.3792 249.928 63.8152 249.78 64.3512 249.78C65.0152 249.78 65.5472 250 65.9472 250.44C66.3472 250.88 66.5472 251.48 66.5472 252.24V254.172C66.5472 254.924 66.3472 255.52 65.9472 255.96C65.5472 256.4 65.0152 256.62 64.3512 256.62ZM63.9912 255.684C64.4472 255.684 64.8072 255.548 65.0712 255.276C65.3352 255.004 65.4672 254.612 65.4672 254.1V252.3C65.4672 251.788 65.3352 251.396 65.0712 251.124C64.8072 250.852 64.4472 250.716 63.9912 250.716C63.5512 250.716 63.1992 250.856 62.9352 251.136C62.6792 251.416 62.5512 251.804 62.5512 252.3V254.1C62.5512 254.596 62.6792 254.984 62.9352 255.264C63.1992 255.544 63.5512 255.684 63.9912 255.684ZM68.6785 258.66V249.9H69.7585V251.16H69.9745L69.7585 251.412C69.7585 250.908 69.9225 250.512 70.2505 250.224C70.5865 249.928 71.0265 249.78 71.5705 249.78C72.2345 249.78 72.7625 250 73.1545 250.44C73.5545 250.872 73.7545 251.468 73.7545 252.228V254.16C73.7545 254.664 73.6625 255.1 73.4785 255.468C73.3025 255.836 73.0505 256.12 72.7225 256.32C72.4025 256.52 72.0185 256.62 71.5705 256.62C71.0345 256.62 70.5985 256.472 70.2625 256.176C69.9265 255.88 69.7585 255.484 69.7585 254.988L69.9745 255.24H69.7345L69.7585 256.74V258.66H68.6785ZM71.2105 255.684C71.6665 255.684 72.0225 255.548 72.2785 255.276C72.5425 255.004 72.6745 254.612 72.6745 254.1V252.3C72.6745 251.788 72.5425 251.396 72.2785 251.124C72.0225 250.852 71.6665 250.716 71.2105 250.716C70.7705 250.716 70.4185 250.856 70.1545 251.136C69.8905 251.416 69.7585 251.804 69.7585 252.3V254.1C69.7585 254.596 69.8905 254.984 70.1545 255.264C70.4185 255.544 70.7705 255.684 71.2105 255.684ZM77.7818 256.62C77.0858 256.62 76.5378 256.444 76.1378 256.092C75.7378 255.732 75.5378 255.248 75.5378 254.64C75.5378 254.024 75.7378 253.54 76.1378 253.188C76.5378 252.836 77.0778 252.66 77.7578 252.66H79.7978V252C79.7978 251.6 79.6738 251.288 79.4258 251.064C79.1858 250.84 78.8498 250.728 78.4178 250.728C78.0338 250.728 77.7098 250.812 77.4458 250.98C77.1818 251.148 77.0178 251.368 76.9538 251.64H75.8738C75.9138 251.272 76.0458 250.948 76.2698 250.668C76.5018 250.388 76.8018 250.172 77.1698 250.02C77.5458 249.86 77.9618 249.78 78.4178 249.78C79.1778 249.78 79.7778 249.976 80.2178 250.368C80.6578 250.76 80.8778 251.292 80.8778 251.964V256.5H79.8218V255.24H79.6418L79.8218 255.06C79.8218 255.54 79.6338 255.92 79.2578 256.2C78.8898 256.48 78.3978 256.62 77.7818 256.62ZM78.0458 255.768C78.5578 255.768 78.9778 255.64 79.3058 255.384C79.6338 255.128 79.7978 254.8 79.7978 254.4V253.464H77.7818C77.4218 253.464 77.1378 253.564 76.9298 253.764C76.7218 253.964 76.6178 254.236 76.6178 254.58C76.6178 254.948 76.7418 255.24 76.9898 255.456C77.2458 255.664 77.5978 255.768 78.0458 255.768ZM85.6011 256.62C85.0731 256.62 84.6091 256.52 84.2091 256.32C83.8171 256.12 83.5131 255.832 83.2971 255.456C83.0811 255.072 82.9731 254.62 82.9731 254.1V252.3C82.9731 251.772 83.0811 251.32 83.2971 250.944C83.5131 250.568 83.8171 250.28 84.2091 250.08C84.6091 249.88 85.0731 249.78 85.6011 249.78C86.3611 249.78 86.9731 249.984 87.4371 250.392C87.9011 250.8 88.1451 251.356 88.1691 252.06H87.0891C87.0651 251.636 86.9211 251.312 86.6571 251.088C86.4011 250.856 86.0491 250.74 85.6011 250.74C85.1291 250.74 84.7531 250.876 84.4731 251.148C84.1931 251.412 84.0531 251.792 84.0531 252.288V254.1C84.0531 254.596 84.1931 254.98 84.4731 255.252C84.7531 255.524 85.1291 255.66 85.6011 255.66C86.0491 255.66 86.4011 255.544 86.6571 255.312C86.9211 255.08 87.0651 254.756 87.0891 254.34H88.1691C88.1451 255.044 87.9011 255.6 87.4371 256.008C86.9731 256.416 86.3611 256.62 85.6011 256.62ZM90.2884 256.5V247.74H91.3684V252.624H92.6404L94.5604 249.9H95.7964L93.5764 253.044L95.8324 256.5H94.5724L92.6524 253.56H91.3684V256.5H90.2884Z" fill="#DDDDDD"/>
</svg>
